<svg width="28" height="29" viewBox="0 0 28 29" fill="none" xmlns="http://www.w3.org/2000/svg">
<g id="circum:timer">
<g id="Group 34060">
<path id="Vector" d="M4.27604 12.1647C3.8915 13.7675 3.90897 15.4405 4.32689 17.035C4.74481 18.6294 5.55023 20.0958 6.67151 21.3037C7.79278 22.5116 9.19515 23.4236 10.7539 23.9586C12.3126 24.4936 13.9793 24.6349 15.6058 24.37C17.1851 24.1136 18.6797 23.4817 19.9641 22.5276C21.2484 21.5734 22.2851 20.3248 22.9869 18.8868C23.6887 17.4487 24.0352 15.8631 23.9972 14.2633C23.9592 12.6635 23.5378 11.0961 22.7685 9.69303C21.8977 8.12899 20.6275 6.82416 19.0875 5.9118C17.5476 4.99944 15.7932 4.51226 14.0034 4.5C13.8705 4.50182 13.7435 4.55544 13.6495 4.64946C13.5556 4.74347 13.5019 4.87045 13.5001 5.0034V9.23192C13.5001 9.36543 13.5531 9.49347 13.6475 9.58787C13.7419 9.68228 13.8699 9.73532 14.0034 9.73532C14.1369 9.73532 14.2649 9.68228 14.3593 9.58787C14.4537 9.49347 14.5067 9.36543 14.5067 9.23192V5.0034L14.0034 5.50679C15.4404 5.50655 16.8565 5.85073 18.1332 6.51051C19.4099 7.17029 20.5099 8.12645 21.3411 9.29891C22.1723 10.4714 22.7106 11.826 22.9108 13.2493C23.111 14.6726 22.9673 16.1232 22.4917 17.4796C22.0178 18.8309 21.2284 20.0496 20.1889 21.0343C19.1495 22.0191 17.8901 22.7416 16.5154 23.1416C15.1407 23.5417 13.6904 23.6078 12.2851 23.3345C10.8797 23.0611 9.55981 22.4563 8.43513 21.5701C7.09832 20.5011 6.09001 19.0767 5.52596 17.4604C4.96192 15.8441 4.86501 14.1014 5.24636 12.4325C5.3893 11.8013 4.41898 11.5264 4.27604 12.1647Z" fill="#EBEDF0"/>
<path id="Vector_2" d="M10.1342 10.3101C10.0471 10.22 9.99893 10.0992 10 9.97388C10.0011 9.84854 10.0514 9.72865 10.14 9.64001C10.2286 9.55138 10.3485 9.50111 10.4738 9.50002C10.5991 9.49893 10.7198 9.54711 10.81 9.63419L14.8658 13.6899C14.9529 13.78 15.0011 13.9008 15 14.0261C14.9989 14.1515 14.9486 14.2714 14.86 14.36C14.7714 14.4486 14.6515 14.4989 14.5262 14.5C14.4009 14.5011 14.2802 14.4529 14.19 14.3658L10.1342 10.3101Z" fill="#EBEDF0"/>
</g>
</g>
</svg>
