<svg xmlns="http://www.w3.org/2000/svg" width="334" height="300" viewBox="0 0 334 300" fill="none">
  <path d="M50.0602 2.58194C52.5436 0.899367 55.4743 0 58.474 0H319C327.284 0 334 6.71573 334 15V255.085C334 260.447 331.139 265.4 326.494 268.079L274.629 297.994C272.35 299.308 269.766 300 267.135 300H15C6.71573 300 0 293.284 0 285V44.4556C0 39.4801 2.46714 34.8284 6.58621 32.0375L50.0602 2.58194Z" fill="#161414"/>
  <path d="M58.474 0.5H319C327.008 0.5 333.5 6.99187 333.5 15V255.085C333.5 260.268 330.734 265.057 326.245 267.646L274.379 297.56C272.176 298.831 269.678 299.5 267.135 299.5H15C6.99188 299.5 0.5 293.008 0.5 285V44.4556C0.5 39.646 2.88491 35.1493 6.86667 32.4515L50.3407 2.99588C52.7413 1.36939 55.5743 0.5 58.474 0.5Z" stroke="white" stroke-opacity="0.3"/>
</svg>