<svg xmlns="http://www.w3.org/2000/svg" width="735" height="355" viewBox="0 0 735 355" fill="none">
  <path d="M116.061 0.906277C117.707 0.306726 119.444 0 121.196 0H720C728.284 0 735 6.71573 735 15V301.052C735 307.624 730.721 313.431 724.443 315.378L598.864 354.327C597.425 354.773 595.927 355 594.421 355H15C6.71574 355 0 348.284 0 340V53.6911C0 47.387 3.94182 41.7555 9.86512 39.5974L116.061 0.906277Z" fill="#161414"/>
  <path d="M116.232 1.37607C117.823 0.796502 119.503 0.5 121.196 0.5H720C728.008 0.5 734.5 6.99187 734.5 15V301.052C734.5 307.405 730.364 313.019 724.295 314.901L598.716 353.849C597.325 354.281 595.877 354.5 594.421 354.5H15C6.99189 354.5 0.5 348.008 0.5 340V53.6911C0.5 47.5971 4.31043 42.1534 10.0363 40.0672L116.232 1.37607Z" stroke="white" stroke-opacity="0.3"/>
</svg>