<svg width="195" height="199" viewBox="0 0 195 199" fill="none" xmlns="http://www.w3.org/2000/svg">
<path d="M54.1349 32.959H153.045C161.053 32.959 167.545 39.4509 167.545 47.459V137.655C167.545 142.056 165.546 146.218 162.112 148.97L116.185 185.774C113.612 187.836 110.414 188.959 107.117 188.959H25.0449C17.0368 188.959 10.5449 182.467 10.5449 174.459V92.6244C10.5449 89.8397 11.3468 87.114 12.8546 84.7729L41.9446 39.6075C44.6137 35.4633 49.2055 32.959 54.1349 32.959Z" stroke="white" stroke-opacity="0.3"/>
<g opacity="0.8">
<g filter="url(#filter0_f_161_3557)">
<path d="M134.443 137.523C130.648 140.285 53.4073 160.587 66.8615 59.8702C85.2496 47.1645 119.578 106.345 134.443 137.523Z" fill="#5C410F"/>
<path d="M89.9356 52.3894C75.4072 66.8258 68.7441 98.2581 117.161 127.196C172.301 160.153 127.42 79.6555 89.9356 52.3894Z" fill="#F5B450"/>
</g>
<g style="mix-blend-mode:color-dodge" filter="url(#filter1_f_161_3557)">
<path d="M124.053 120.927C119.455 123.282 40.5039 139.781 93.8388 51.9101C115.841 41.0963 123.149 93.4156 124.053 120.927Z" fill="#5C410F"/>
<path d="M49.8809 68.1268C32.9879 91.0155 29.4986 131.602 99.0184 148.765C178.193 168.31 104.538 87.31 49.8809 68.1268Z" fill="#D98E1B"/>
</g>
</g>
<defs>
<filter id="filter0_f_161_3557" x="13.7491" y="0.849403" width="180.732" height="191.714" filterUnits="userSpaceOnUse" color-interpolation-filters="sRGB">
<feFlood flood-opacity="0" result="BackgroundImageFix"/>
<feBlend mode="normal" in="SourceGraphic" in2="BackgroundImageFix" result="shape"/>
<feGaussianBlur stdDeviation="25.77" result="effect1_foregroundBlur_161_3557"/>
</filter>
<filter id="filter1_f_161_3557" x="8.08305" y="18.92" width="157.172" height="164.404" filterUnits="userSpaceOnUse" color-interpolation-filters="sRGB">
<feFlood flood-opacity="0" result="BackgroundImageFix"/>
<feBlend mode="normal" in="SourceGraphic" in2="BackgroundImageFix" result="shape"/>
<feGaussianBlur stdDeviation="15.77" result="effect1_foregroundBlur_161_3557"/>
</filter>
</defs>
</svg>
