<svg width="187" height="192" viewBox="0 0 187 192" fill="none" xmlns="http://www.w3.org/2000/svg">
<path d="M55.1876 24.3469H154.098C162.106 24.3469 168.598 30.8388 168.598 38.8469V129.043C168.598 133.444 166.599 137.606 163.165 140.358L117.237 177.162C114.665 179.224 111.467 180.347 108.17 180.347H26.0977C18.0895 180.347 11.5977 173.855 11.5977 165.847V84.0123C11.5977 81.2277 12.3995 78.5019 13.9073 76.1608L42.9973 30.9954C45.6665 26.8512 50.2582 24.3469 55.1876 24.3469Z" stroke="white" stroke-opacity="0.3"/>
<g opacity="0.8">
<g filter="url(#filter0_f_161_3539)">
<path d="M126.767 136.784C122.972 139.546 45.7315 159.847 59.1857 59.131C77.5738 46.4252 111.902 105.605 126.767 136.784Z" fill="#37E7FF"/>
<path d="M82.2618 51.6501C67.7334 66.0866 61.0703 97.5189 109.487 126.457C164.627 159.414 119.746 78.9162 82.2618 51.6501Z" fill="#3F6335"/>
</g>
<g style="mix-blend-mode:color-dodge" filter="url(#filter1_f_161_3539)">
<path d="M122.387 115.918C116.839 118.948 24.1584 145.201 95.0217 44.8778C121.518 30.871 124.306 86.402 122.387 115.918Z" fill="#CFFFF6"/>
<path d="M49.5486 62.1722C39.4445 80.2382 42.5739 116.123 100.354 141.625C166.159 170.668 95.8042 87.324 49.5486 62.1722Z" fill="#3F6335"/>
</g>
</g>
<defs>
<filter id="filter0_f_161_3539" x="6.07328" y="0.110146" width="180.734" height="191.714" filterUnits="userSpaceOnUse" color-interpolation-filters="sRGB">
<feFlood flood-opacity="0" result="BackgroundImageFix"/>
<feBlend mode="normal" in="SourceGraphic" in2="BackgroundImageFix" result="shape"/>
<feGaussianBlur stdDeviation="25.77" result="effect1_foregroundBlur_161_3539"/>
</filter>
<filter id="filter1_f_161_3539" x="13.5342" y="11.1123" width="145.166" height="168.118" filterUnits="userSpaceOnUse" color-interpolation-filters="sRGB">
<feFlood flood-opacity="0" result="BackgroundImageFix"/>
<feBlend mode="normal" in="SourceGraphic" in2="BackgroundImageFix" result="shape"/>
<feGaussianBlur stdDeviation="15.77" result="effect1_foregroundBlur_161_3539"/>
</filter>
</defs>
</svg>
