<svg width="474" height="117" viewBox="0 0 474 117" fill="none" xmlns="http://www.w3.org/2000/svg">
<path fill-rule="evenodd" clip-rule="evenodd" d="M204.063 0.208703C203.736 0.238377 202.905 0.342238 202.208 0.431262C201.511 0.520285 200.205 0.728007 199.315 0.891217C198.425 1.05443 197.208 1.3215 196.644 1.48471C196.383 1.56021 196.062 1.6484 195.748 1.73461C195.384 1.83477 195.029 1.93225 194.789 2.00401C194.344 2.12271 193.202 2.52332 192.267 2.89425C191.332 3.26518 190.264 3.7103 189.893 3.90318L189.488 4.11345C189.072 4.32966 188.509 4.62174 188.038 4.86761C187.386 5.19403 186.659 5.60947 186.406 5.75784C186.154 5.92105 185.857 6.0991 185.739 6.15845C185.62 6.2178 185.086 6.55906 184.552 6.92999C184.018 7.28608 183.187 7.89441 182.697 8.26534C182.207 8.63627 181.54 9.17041 181.228 9.46716C180.902 9.74907 180.204 10.3871 179.67 10.8767C179.121 11.3663 178.231 12.3011 177.667 12.9539C177.103 13.6068 176.54 14.2448 176.421 14.3635C176.302 14.4822 175.946 14.957 175.634 15.4021C175.534 15.545 175.418 15.7108 175.297 15.8824L175.296 15.8838L175.294 15.8863C175.039 16.2481 174.767 16.6349 174.596 16.8858C174.329 17.2567 173.988 17.7909 173.839 18.0728C173.801 18.1394 173.757 18.2151 173.711 18.295L173.711 18.2953L173.71 18.2969C173.562 18.5549 173.388 18.8563 173.275 19.0372C173.112 19.2746 172.756 19.9423 172.489 20.5209C172.207 21.0996 171.792 21.9601 171.569 22.4498C171.346 22.9394 170.901 24.1115 170.605 25.0463C170.293 25.981 169.937 27.257 169.803 27.8654C169.737 28.1695 169.648 28.5739 169.559 28.9782C169.47 29.3825 169.381 29.7868 169.314 30.091C169.062 31.1296 169.047 34.0822 169.017 73.6087L168.973 115.999C169.492 116.117 174.982 116.132 181.51 116.117L193.38 116.073C193.513 45.1953 193.573 33.7854 193.691 33.5777C193.78 33.4145 193.899 32.9842 193.959 32.6133C194.018 32.2424 194.196 31.6489 194.359 31.278C194.461 31.0658 194.582 30.8004 194.692 30.5592L194.693 30.5576C194.775 30.3777 194.851 30.2113 194.908 30.091C195.056 29.8091 195.531 29.0672 195.991 28.4589C196.451 27.8505 197.149 27.0493 197.549 26.6784C197.95 26.3075 198.766 25.6843 199.359 25.2985C199.938 24.9128 201.006 24.3638 201.733 24.067C202.445 23.7703 203.529 23.4142 204.137 23.2955C204.834 23.1323 205.932 23.0433 207.104 23.0581C208.232 23.0581 209.389 23.1471 210.072 23.2955C210.68 23.429 211.719 23.7258 212.372 23.9632C213.024 24.2006 214.093 24.7496 214.746 25.165C215.398 25.5953 216.407 26.3965 216.971 26.9455C217.535 27.4944 218.321 28.4144 218.692 28.9782C219.063 29.5568 219.582 30.5212 219.835 31.1296C220.072 31.7379 220.384 32.7023 220.517 33.281C220.725 34.2157 220.755 38.5779 220.74 75.0479C220.74 108.194 220.784 115.806 220.933 115.954C221.081 116.103 223.856 116.132 233.218 116.103L245.31 116.073C245.459 45.1656 245.518 33.7113 245.637 33.281C245.741 32.9546 245.874 32.4501 245.948 32.1682C246.023 31.8863 246.26 31.2483 246.497 30.7586C246.72 30.269 247.195 29.4381 247.536 28.904C247.892 28.3698 248.664 27.4648 249.272 26.901C249.865 26.3223 250.859 25.5508 251.468 25.165C252.076 24.7792 253.174 24.2451 253.916 23.9632C254.658 23.6813 255.889 23.3252 256.661 23.1916C257.655 23.0136 258.53 22.9542 259.628 23.0136C260.489 23.0581 261.691 23.1768 262.299 23.2955C262.907 23.4142 263.649 23.6071 263.931 23.7406C264.213 23.8742 264.777 24.0967 265.192 24.2599C265.593 24.4083 266.172 24.705 266.483 24.9424C266.795 25.165 267.077 25.343 267.121 25.343C267.166 25.343 267.373 25.4766 267.611 25.6546C267.833 25.8178 268.338 26.2333 268.738 26.5745C269.139 26.9158 269.866 27.7318 270.356 28.3847C270.86 29.0375 271.498 30.0761 271.78 30.6845C272.062 31.2928 272.344 32.0347 272.403 32.3166C272.463 32.5985 272.581 33.1029 272.67 33.4294C272.774 33.83 272.833 47.0203 272.833 74.8995C272.833 107.69 272.863 115.821 273.012 115.969C273.16 116.117 275.727 116.147 285.223 116.162C294.867 116.162 297.271 116.117 297.419 115.969C297.567 115.821 297.612 106.562 297.641 74.4544C297.686 39.6313 297.716 33.0436 297.894 32.6133C297.973 32.4247 298.112 32.0633 298.258 31.6848L298.264 31.6686L298.266 31.6633L298.267 31.661L298.268 31.6598L298.335 31.4841C298.382 31.3632 298.428 31.2434 298.472 31.1296C298.68 30.5954 299.155 29.7052 299.526 29.1265C299.897 28.5479 300.668 27.628 301.247 27.0493C301.826 26.4707 302.79 25.6843 303.398 25.2837C304.007 24.8831 305.119 24.3044 305.846 24.0077C306.573 23.7109 307.686 23.3697 308.295 23.2658C308.903 23.1471 310.209 23.0581 311.188 23.0581C312.271 23.0581 313.428 23.1471 314.155 23.2955C314.808 23.429 315.876 23.7555 316.529 24.0225C317.182 24.2748 317.82 24.5863 317.939 24.6902C318.058 24.7941 318.206 24.8979 318.28 24.8979C318.339 24.8979 318.71 25.1205 319.096 25.3876C319.497 25.6398 320.239 26.2333 320.758 26.6784C321.262 27.1235 322.019 27.9989 322.435 28.6072C322.85 29.2156 323.295 29.9278 323.429 30.1652C323.547 30.4026 323.8 30.9812 323.978 31.4263C324.156 31.8714 324.393 32.7023 324.527 33.281C324.749 34.2157 324.764 38.2663 324.764 75.1666C324.764 111.325 324.794 116.014 324.987 116.073C325.105 116.117 330.565 116.147 337.123 116.147C343.667 116.147 349.112 116.088 349.201 116.028C349.349 115.954 349.379 107.304 349.349 73.7125C349.32 42.9104 349.26 31.3373 349.142 30.907C349.053 30.5806 348.904 29.9129 348.815 29.4233C348.726 28.9337 348.593 28.2066 348.504 27.7912C348.415 27.3906 348.073 26.2184 347.747 25.1947C347.406 24.1709 346.975 22.9691 346.768 22.524C346.704 22.3882 346.626 22.2194 346.54 22.0351L346.536 22.0272L346.526 22.0048L346.525 22.0019C346.333 21.5889 346.108 21.105 345.937 20.7435C345.685 20.2093 345.106 19.1411 344.646 18.3695C344.186 17.598 343.311 16.2923 342.702 15.4763C342.079 14.6602 341.293 13.6661 340.937 13.2507C340.581 12.8501 339.646 11.8856 338.874 11.1141C338.088 10.3574 336.753 9.18525 335.907 8.51758C335.061 7.86474 334.215 7.21189 334.022 7.0932C333.971 7.06181 333.873 7.00035 333.739 6.91704L333.738 6.91673L333.737 6.91589L333.735 6.91427L333.728 6.91002C333.354 6.6772 332.716 6.28036 332.079 5.89138C331.203 5.35724 329.913 4.63021 329.215 4.28895C328.518 3.93286 327.45 3.45807 326.841 3.20583C326.233 2.96844 325.357 2.64202 324.912 2.47881C324.467 2.3156 323.429 1.97434 322.613 1.73694C321.797 1.49955 320.654 1.2028 320.09 1.0841C319.526 0.980241 318.621 0.817031 318.087 0.728007C317.82 0.683465 317.471 0.624065 317.122 0.564675C316.774 0.505367 316.425 0.446068 316.158 0.401587C315.624 0.327401 314.022 0.208703 312.597 0.164191C311.099 0.119679 309.215 0.164191 308.146 0.253214C307.122 0.342238 305.728 0.520285 305.03 0.624146L304.942 0.639173C304.254 0.756312 303.348 0.910372 302.879 1.00992C302.389 1.09894 301.262 1.38085 300.357 1.63308C299.452 1.88531 297.894 2.40462 296.87 2.79039C295.846 3.17616 294.288 3.87351 293.383 4.33346C292.478 4.77858 291.484 5.31272 291.158 5.49077C290.831 5.68366 289.896 6.27715 289.08 6.81129C288.264 7.36027 287.062 8.20599 286.41 8.69562C285.757 9.20009 285.148 9.55618 285.074 9.51167C285.051 9.49308 284.988 9.44536 284.898 9.37673L284.894 9.37346L284.892 9.37164C284.694 9.22067 284.368 8.97241 284.036 8.71046C283.546 8.33953 282.611 7.65701 281.958 7.21189C281.306 6.76678 280.208 6.06943 279.51 5.65398C278.813 5.2237 277.478 4.52635 276.543 4.06639C275.608 3.62128 274.095 2.98327 273.204 2.65685C272.314 2.3156 270.875 1.8408 270.014 1.61824C269.154 1.38085 268.056 1.09894 267.566 1.00992C267.097 0.910372 266.192 0.756312 265.503 0.639173L265.415 0.624146C264.717 0.520285 263.323 0.342238 262.299 0.253214C261.231 0.164191 259.346 0.119679 257.848 0.164191C256.423 0.208703 254.821 0.327401 254.287 0.401587C254.02 0.446019 253.672 0.505236 253.324 0.564478L253.324 0.564552L253.324 0.564581L253.323 0.564712L253.323 0.564736C252.974 0.624105 252.625 0.68348 252.358 0.728007C251.824 0.817031 250.963 0.965403 250.429 1.0841C249.895 1.18796 248.753 1.48471 247.862 1.73694C246.987 1.98918 245.577 2.46397 244.717 2.79039C243.856 3.11681 242.402 3.75481 241.482 4.21477C240.577 4.65988 239.687 5.105 239.524 5.20886C239.412 5.28708 239.157 5.44102 238.893 5.60098L238.892 5.6011L238.763 5.67943L238.634 5.75784C238.307 5.95073 237.907 6.20296 237.743 6.30682C237.58 6.41068 237.343 6.54422 237.224 6.60357C237.105 6.66292 236.111 7.36027 235.043 8.16148L233.07 9.61553C232.224 8.97753 231.319 8.30985 230.488 7.70152C229.657 7.10803 228.292 6.18812 227.431 5.66882C226.571 5.16435 225.072 4.37798 224.093 3.93286C223.114 3.4729 221.675 2.87941 220.903 2.58267C220.131 2.30076 218.989 1.92983 218.381 1.75178C217.772 1.58857 217.03 1.38085 216.749 1.29182C216.467 1.21764 215.858 1.0841 215.413 0.995078C215.234 0.965249 214.938 0.913832 214.583 0.852399L214.582 0.852085C214.055 0.760786 213.402 0.647434 212.817 0.54996C211.585 0.357075 210.057 0.253214 207.846 0.208703C206.095 0.179028 204.389 0.179028 204.063 0.208703ZM411.34 0.268052C410.523 0.327401 409.055 0.490611 408.075 0.624146C407.096 0.757682 405.761 0.965403 405.108 1.09894C404.704 1.17232 404.182 1.27972 403.715 1.37557C403.427 1.43477 403.16 1.48957 402.956 1.52922C402.422 1.63308 401.591 1.8408 401.102 1.97434C400.749 2.07042 400.32 2.18186 400.002 2.26445L400.001 2.26493L399.987 2.26838C399.87 2.29891 399.768 2.32531 399.692 2.34527C399.41 2.41946 398.476 2.70136 397.615 2.99811C396.754 3.28002 395.582 3.68062 395.018 3.90318C394.455 4.12574 393.342 4.57086 392.57 4.89728C391.799 5.2237 390.656 5.74301 390.048 6.03975L389.854 6.13922C389.265 6.44039 388.519 6.82226 388.119 7.04869C387.674 7.30092 387.036 7.65701 386.71 7.83506C386.383 8.01311 385.938 8.26534 385.716 8.39888C385.508 8.53241 385.003 8.844 384.603 9.08139C384.217 9.31879 383.356 9.8826 382.704 10.3277C382.051 10.7877 380.982 11.5592 380.33 12.0488C379.677 12.5385 378.416 13.5771 377.51 14.3486C376.605 15.1202 375.211 16.4407 374.395 17.2567C373.579 18.0728 372.258 19.4675 371.487 20.3726C370.715 21.2776 369.676 22.5388 369.187 23.1916C368.697 23.8445 367.926 24.9128 367.481 25.5656C367.021 26.2184 366.368 27.2422 365.997 27.8357C365.641 28.444 365.24 29.1117 365.107 29.3194C365.059 29.4085 364.971 29.5639 364.863 29.7555L364.86 29.7606C364.698 30.0473 364.491 30.4135 364.305 30.7586C363.994 31.3373 363.549 32.1682 363.326 32.6133C363.104 33.0584 362.644 34.0674 362.302 34.8389C362.001 35.5209 361.571 36.5739 361.271 37.3112L361.27 37.3136L361.16 37.5838C360.878 38.3108 360.448 39.5275 360.21 40.2545C359.973 40.9815 359.557 42.3614 359.305 43.2961C359.053 44.2309 358.756 45.4327 358.637 45.9669C358.534 46.501 358.341 47.4951 358.222 48.1924C358.103 48.8898 357.94 49.9878 357.851 50.6406C357.777 51.2934 357.629 52.3914 357.525 53.0887C357.421 53.8158 357.347 56.1452 357.347 58.5785C357.347 61.0564 357.421 63.2968 357.525 63.9941C357.629 64.647 357.777 65.7746 357.851 66.5165C357.94 67.2583 358.103 68.386 358.222 69.0388C358.326 69.6917 358.519 70.6561 358.652 71.1902C358.771 71.7244 358.934 72.4514 359.023 72.8223C359.112 73.1932 359.261 73.7571 359.35 74.0835C359.439 74.4099 359.884 75.8046 360.344 77.1993C360.789 78.594 361.234 79.8849 361.338 80.0926C361.427 80.3003 361.62 80.7009 361.753 80.9828C361.887 81.2647 362.124 81.8434 362.287 82.244C362.436 82.6594 363.044 83.9206 363.638 85.0631C364.216 86.2055 365.003 87.6447 365.388 88.2531C365.759 88.8614 366.368 89.8258 366.739 90.4045C367.11 90.9831 367.896 92.1108 368.504 92.9268C368.907 93.4802 369.35 94.0678 369.659 94.4766L369.659 94.4771L369.661 94.4796C369.806 94.6722 369.922 94.8248 369.988 94.915C370.211 95.1969 370.463 95.4937 370.552 95.5827C370.641 95.6717 371.22 96.3394 371.828 97.0813C372.451 97.8231 373.742 99.1881 374.706 100.138C375.686 101.087 376.872 102.185 377.362 102.586C377.852 102.986 378.46 103.506 378.697 103.728C378.95 103.966 379.439 104.352 379.81 104.619C380.181 104.871 381.116 105.553 381.888 106.117C382.674 106.696 383.445 107.245 383.594 107.349C383.617 107.364 383.655 107.387 383.705 107.418L383.78 107.464C383.871 107.52 383.988 107.592 384.123 107.675L384.129 107.679L384.132 107.68L384.146 107.689L384.153 107.693C384.322 107.797 384.52 107.918 384.732 108.049C384.958 108.188 385.202 108.338 385.448 108.491C386.309 109.01 387.674 109.782 388.49 110.212C389.306 110.628 390.033 111.028 390.122 111.088C390.211 111.147 391.235 111.607 392.422 112.111C393.609 112.616 395.582 113.373 396.799 113.788C398.03 114.203 400.093 114.812 401.399 115.138C402.704 115.465 404.336 115.836 405.034 115.939C405.731 116.058 406.903 116.221 407.63 116.296C408.357 116.385 409.336 116.518 409.782 116.592C410.227 116.666 412.17 116.77 414.084 116.83C416.162 116.874 418.387 116.859 419.574 116.755C420.672 116.666 422.349 116.488 423.284 116.37C424.218 116.251 425.494 116.058 426.103 115.939C426.711 115.836 427.616 115.658 428.106 115.554C428.595 115.45 429.471 115.257 430.034 115.109C430.598 114.96 431.637 114.663 432.334 114.456C433.032 114.263 434.322 113.833 435.228 113.506L435.568 113.384C436.414 113.079 437.403 112.722 437.898 112.527C438.462 112.304 440.035 111.577 441.385 110.91C442.735 110.242 444.59 109.248 445.51 108.699C446.415 108.15 447.928 107.171 448.848 106.547C449.753 105.924 450.807 105.168 451.178 104.886C451.549 104.589 451.875 104.322 451.919 104.277C451.964 104.233 452.498 103.803 453.106 103.328C453.715 102.838 455.451 101.206 456.964 99.6926C458.478 98.1792 460.406 96.0575 461.252 95.004C462.098 93.9506 463.107 92.6152 463.478 92.0663C463.848 91.503 464.471 90.5696 464.856 89.9908L464.858 89.989C465.258 89.3955 465.644 88.7872 465.718 88.624L465.753 88.5594L465.782 88.5055C465.878 88.3271 466.015 88.0716 466.134 87.8821C466.282 87.6447 466.697 86.9029 467.053 86.25C467.41 85.5972 467.855 84.7663 468.033 84.3954C468.211 84.0245 468.597 83.2232 468.878 82.6149C469.16 82.0066 469.665 80.8344 469.991 80.0184C470.303 79.2023 470.837 77.7038 471.163 76.68C471.49 75.6562 471.831 74.5583 471.92 74.2319C472.009 73.9054 472.187 73.2674 472.321 72.8223C472.439 72.3772 472.617 71.6798 472.692 71.2644C472.743 71.0352 472.818 70.6505 472.898 70.2411L472.899 70.2373C472.958 69.9323 473.021 69.6137 473.077 69.3356C473.196 68.6827 473.404 67.4512 473.523 66.5907C473.641 65.7301 473.804 64.1277 473.893 63.0297C473.983 61.8724 474.027 59.2907 473.983 56.9464C473.938 54.706 473.834 52.4656 473.745 51.9759C473.656 51.4863 473.523 50.5516 473.434 49.8987C473.359 49.2459 473.196 48.1776 473.077 47.5248C472.959 46.8719 472.751 45.9223 472.632 45.4179C472.565 45.1561 472.483 44.8228 472.402 44.4976C472.323 44.1776 472.246 43.8655 472.187 43.6374C472.069 43.1626 471.876 42.4059 471.757 41.9608C471.623 41.5157 471.223 40.2693 470.852 39.2159C470.496 38.1624 469.813 36.4116 469.353 35.3582C468.893 34.3048 468.048 32.5243 467.469 31.4263C466.905 30.3284 466.104 28.9188 465.703 28.3105C465.303 27.7022 464.917 27.0642 464.828 26.901C464.778 26.7917 464.689 26.636 464.608 26.496L464.607 26.4943L464.562 26.4157C464.551 26.3964 464.541 26.3776 464.53 26.3597C464.52 26.3414 464.51 26.3239 464.501 26.3075C464.441 26.2205 464.145 25.8178 463.741 25.2663C463.456 24.8766 463.116 24.4127 462.766 23.9335C461.905 22.791 460.614 21.1589 459.872 20.3132C459.13 19.4526 457.81 18.0579 456.949 17.1974C456.089 16.3368 454.694 15.0163 453.833 14.2744C452.988 13.5326 451.46 12.3011 450.436 11.5444C449.412 10.7728 448.195 9.91228 447.721 9.61553C447.494 9.48074 447.26 9.33916 447.063 9.21999C446.848 9.08993 446.677 8.98657 446.608 8.94786C446.533 8.89791 446.379 8.80127 446.2 8.68937C446.06 8.60181 445.905 8.5049 445.762 8.41371C445.436 8.20599 444.664 7.74604 444.056 7.41962C443.447 7.07836 442.246 6.45519 441.385 6.03975C440.524 5.62431 439.694 5.20886 439.53 5.11984C439.367 5.04565 438.803 4.80826 438.269 4.61537C437.735 4.40765 437.245 4.19993 437.156 4.14058C437.067 4.08123 435.866 3.65095 434.486 3.20583C433.106 2.74588 431.696 2.30076 431.37 2.21173C431.043 2.12271 430.079 1.88531 429.218 1.67759C428.358 1.45503 427.097 1.18796 426.399 1.0841C425.702 0.965403 424.53 0.802193 423.803 0.71317C423.076 0.624146 422.037 0.490611 421.503 0.401587C420.969 0.312563 418.803 0.22354 416.681 0.193865C414.559 0.164191 412.156 0.193865 411.34 0.268052ZM0.00556398 58.6527C-0.0092733 27.0642 0.00556398 1.14345 0.0500758 1.03959C0.109425 0.891217 7.27583 0.861543 70.9723 0.935729V25.4172L24.8283 25.4766L24.6503 25.8623C24.5019 26.1443 24.4574 28.355 24.4574 35.3582C24.4574 41.1447 24.5168 44.587 24.6058 44.7799C24.7541 45.0766 24.9025 45.0766 65.8534 45.0766L66.0018 45.4475C66.0908 45.6849 66.1502 49.9878 66.1502 57.2729C66.1502 63.5787 66.1057 68.9646 65.9276 69.7065H45.3483C24.9025 69.7065 24.7541 69.7065 24.6058 70.0032C24.5019 70.1961 24.4574 78.2082 24.4574 115.999L24.131 116.073C23.9381 116.117 18.4483 116.132 0.0500758 116.073L0.00556398 58.6527ZM81.8925 0.965403C81.6996 1.02475 81.67 6.35134 81.6996 42.2279C81.7293 67.7331 81.7887 83.9354 81.8777 84.7663C81.9667 85.5082 82.1151 86.6061 82.2338 87.2145C82.3175 87.6437 82.4308 88.2058 82.5215 88.656C82.5594 88.8439 82.5933 89.0122 82.6196 89.1433C82.7086 89.5884 83.0795 90.8348 83.4356 91.8882C83.7917 92.9417 84.4445 94.5886 84.8897 95.5233C85.3348 96.4581 85.9728 97.6747 86.314 98.2237C86.3746 98.3283 86.4336 98.4298 86.4896 98.5261L86.4897 98.5264C86.7354 98.949 86.9224 99.2706 86.9224 99.3068C86.9224 99.3514 87.4268 100.064 88.05 100.894C88.6583 101.74 89.3853 102.69 89.6376 103.016C89.8898 103.343 91.0174 104.515 92.1154 105.613C93.2282 106.711 94.801 108.12 95.6022 108.743C96.4182 109.352 97.5013 110.123 98.0206 110.45C98.3344 110.638 98.6753 110.853 98.9451 111.024L98.9453 111.024C99.1219 111.135 99.268 111.228 99.356 111.281C99.5786 111.414 100.662 111.993 101.76 112.557C102.858 113.135 104.059 113.699 104.43 113.818C104.801 113.951 105.573 114.233 106.137 114.441C106.715 114.663 107.487 114.945 107.887 115.049C108.273 115.168 108.941 115.361 109.371 115.479C109.787 115.613 110.647 115.806 111.256 115.925C111.864 116.043 112.71 116.207 113.11 116.281C113.526 116.355 114.46 116.503 115.187 116.607C116.018 116.741 117.828 116.815 119.935 116.815C121.983 116.815 123.912 116.741 124.757 116.622L125.07 116.574L125.07 116.574C125.776 116.466 126.561 116.345 126.909 116.281C127.276 116.215 127.966 116.08 128.542 115.968L128.763 115.925C129.372 115.806 130.544 115.509 131.36 115.272C132.176 115.034 133.378 114.634 134.031 114.396C134.684 114.159 135.559 113.818 135.96 113.654C136.375 113.491 137.503 112.942 138.482 112.438C139.461 111.933 140.871 111.147 141.598 110.687C142.34 110.227 143.2 109.634 143.527 109.396C143.853 109.159 144.625 108.55 145.233 108.061C145.841 107.586 147.177 106.34 148.2 105.316C149.224 104.292 150.663 102.645 151.39 101.666C152.132 100.702 152.815 99.7668 152.919 99.6036C152.945 99.556 152.974 99.5021 153.005 99.4466C153.079 99.312 153.158 99.1684 153.2 99.0843C153.26 98.9656 153.542 98.4611 153.839 97.9715C154.15 97.4819 154.61 96.6213 154.862 96.0426C155.129 95.464 155.5 94.6628 155.693 94.2622C155.871 93.8467 156.316 92.6449 156.658 91.5915C156.999 90.538 157.385 89.2027 157.503 88.624C157.622 88.0454 157.785 87.1551 157.859 86.621C157.934 86.0868 158.067 85.1224 158.156 84.4696C158.26 83.6832 158.29 69.5136 158.26 42.1092L158.215 0.935729C139.817 0.87638 134.327 0.891217 134.149 0.935729L133.808 1.00992C133.808 80.5525 133.793 81.8434 133.526 83.2826C133.363 84.0986 133.096 85.1373 132.918 85.5824C132.74 86.0275 132.428 86.7248 132.221 87.1403C132.013 87.5409 131.553 88.2531 131.197 88.6982C130.856 89.1433 130.188 89.8852 129.698 90.3451C129.223 90.8051 128.541 91.3837 128.17 91.6063C127.933 91.7582 127.671 91.9223 127.47 92.048C127.358 92.1187 127.264 92.1772 127.206 92.2146C127.042 92.3037 126.612 92.5262 126.241 92.7043C125.87 92.8823 125.069 93.1791 124.461 93.3719C123.852 93.5648 123.021 93.7874 122.606 93.8764C122.205 93.9803 121.004 94.0544 119.935 94.0544C118.882 94.0544 117.843 93.9951 117.636 93.9209C117.428 93.8467 116.938 93.728 116.523 93.6687C116.122 93.6093 115.217 93.3274 114.52 93.0455C113.822 92.7488 112.799 92.2146 112.22 91.8437C111.656 91.4876 110.721 90.7457 110.172 90.1968C109.609 89.6626 108.882 88.8169 108.54 88.3273C108.199 87.8376 107.695 86.9771 107.427 86.3984C107.146 85.8198 106.834 84.9592 106.745 84.4696C106.641 83.9799 106.493 83.4755 106.419 83.3568C106.344 83.2232 106.255 66.7094 106.211 42.035L106.137 0.935729C87.5159 0.891217 81.9964 0.920892 81.8925 0.965403ZM413.044 24.807C412.999 24.8516 412.198 24.9554 411.263 25.0444C410.329 25.1186 409.32 25.2522 409.038 25.3263C408.848 25.3862 408.451 25.4795 408.026 25.5793C407.819 25.628 407.605 25.6783 407.406 25.727C406.797 25.8605 405.818 26.1276 405.254 26.3056C405.098 26.3589 404.921 26.419 404.737 26.4816C404.254 26.6453 403.722 26.8255 403.4 26.9436C402.954 27.1217 401.946 27.5519 401.174 27.9229C400.402 28.2938 399.364 28.8279 398.874 29.1099C398.385 29.4066 397.88 29.6885 397.761 29.7479C397.643 29.8072 396.604 30.5491 395.462 31.3948C394.319 32.2554 392.732 33.5907 391.93 34.3771C391.114 35.1635 389.749 36.7362 388.889 37.8787C388.028 39.0212 386.945 40.5939 386.485 41.3654C386.04 42.137 385.357 43.4427 384.972 44.2587C384.601 45.0748 384.081 46.3508 383.829 47.0778C383.562 47.8197 383.191 49.0511 383.013 49.8227C382.82 50.5942 382.583 51.5735 382.494 51.9741C382.39 52.3895 382.256 53.4133 382.167 54.2739C382.078 55.1344 381.975 56.8407 381.945 58.0574C381.886 59.7933 381.93 60.7578 382.167 62.4344C382.331 63.6213 382.538 64.9864 382.627 65.476C382.716 65.9656 383.073 67.2713 383.399 68.3693C383.74 69.4672 384.141 70.6691 384.304 71.04C384.423 71.3105 384.645 71.8021 384.86 72.2787C384.939 72.4555 385.018 72.6302 385.09 72.7908C385.372 73.3694 385.595 73.8887 385.595 73.9333C385.595 73.9778 385.936 74.5564 386.352 75.2389C386.545 75.5619 386.746 75.8882 386.912 76.1577C387.089 76.4453 387.226 76.6681 387.271 76.7523C387.375 76.9155 388.043 77.8503 388.77 78.8296C389.497 79.8088 390.758 81.2925 391.589 82.1383C392.405 82.984 393.889 84.2897 394.868 85.0464C395.847 85.8179 397.42 86.8862 398.355 87.45C399.305 88.0138 400.299 88.5776 400.581 88.726C400.862 88.8596 401.545 89.1711 402.109 89.4234C402.658 89.6756 403.785 90.1059 404.616 90.3878C405.462 90.6697 406.515 91.011 406.961 91.1445C407.406 91.278 408.103 91.4561 408.518 91.5154C408.769 91.5619 409.246 91.6431 409.758 91.7302C410.063 91.7823 410.381 91.8364 410.67 91.8864C411.471 92.0347 413.281 92.1683 414.824 92.2128C416.382 92.2573 418.089 92.2128 418.756 92.1237C419.082 92.0867 419.513 92.0311 419.943 91.9754C420.373 91.9198 420.804 91.8641 421.13 91.827C421.783 91.738 422.747 91.5748 423.282 91.4709C423.816 91.3522 424.914 91.0555 425.73 90.8032C426.546 90.5658 427.748 90.1504 428.4 89.8833C429.053 89.6311 429.958 89.2305 430.403 89.0079C430.849 88.7854 431.62 88.3699 432.11 88.1028C432.599 87.8358 433.341 87.4055 433.742 87.1681C434.142 86.9307 435.255 86.1443 436.19 85.4321C437.125 84.7051 438.742 83.2659 439.766 82.2124C440.804 81.1738 442.258 79.4972 443 78.5031C443.742 77.4942 444.351 76.6485 444.351 76.604C444.351 76.5594 444.632 76.0401 444.989 75.4615C445.345 74.868 445.864 73.8739 446.161 73.2656C446.457 72.6572 446.903 71.6483 447.14 71.04C447.377 70.4317 447.778 69.2595 448.03 68.4435C448.282 67.6274 448.535 66.6927 448.579 66.3662C448.638 66.0398 448.742 65.6095 448.817 65.4018C448.876 65.1941 449.009 64.3632 449.098 63.5472C449.202 62.7311 449.321 61.4699 449.38 60.7281C449.455 59.9862 449.455 58.2948 449.38 56.9446C449.321 55.5944 449.173 53.9326 449.054 53.2353C448.935 52.5379 448.772 51.6477 448.683 51.2322C448.594 50.8316 448.282 49.6595 447.971 48.6357C447.674 47.6119 447.021 45.876 446.532 44.778C446.042 43.6801 445.241 42.1073 444.751 41.2913C444.261 40.4752 443.253 39.0063 442.511 38.0271C441.784 37.0478 440.478 35.5344 439.617 34.6738C438.757 33.8133 437.214 32.4779 436.19 31.7064C435.166 30.9348 434.202 30.2226 434.039 30.1188C433.985 30.0894 433.919 30.0518 433.85 30.0121C433.71 29.9316 433.554 29.842 433.445 29.7924C433.282 29.7033 432.955 29.5105 432.703 29.3472C432.451 29.184 431.59 28.7241 430.774 28.3235C429.958 27.9229 428.92 27.4332 428.475 27.2255C428.03 27.0178 426.724 26.5727 425.581 26.2314C424.439 25.8902 423.163 25.5489 422.762 25.4747C422.514 25.4303 422.069 25.3541 421.586 25.2714C421.262 25.2158 420.921 25.1574 420.611 25.1038C419.75 24.9554 418.014 24.8219 416.16 24.7922C414.483 24.7625 413.088 24.7625 413.044 24.807Z" fill="#7F808F" fill-opacity="0.15"/>
</svg>
