<svg width="324" height="324" viewBox="0 0 324 324" fill="none" xmlns="http://www.w3.org/2000/svg">
<path d="M139.856 174.8C127.347 153.157 117.101 135.388 117.091 135.299C117.073 135.173 121.997 132.303 165.895 107.027L175.582 123.804L143.825 142.193L143.855 142.528C143.864 142.781 144.709 144.313 147.479 149.113C149.769 153.078 151.172 155.414 151.31 155.511C151.529 155.655 151.631 155.596 179.835 139.313L180.084 139.508C180.239 139.635 181.982 142.56 184.865 147.553C187.36 151.875 189.46 155.583 189.631 156.163L175.458 164.345C161.377 172.475 161.274 172.534 161.29 172.797C161.294 172.97 164.434 178.479 179.386 204.377L179.191 204.558C179.076 204.665 175.301 206.858 162.606 214.133L139.856 174.8Z" fill="#E82B6C"/>
<path d="M92.9207 87.0777L84.7266 77.001L86.4598 75.5916L89.8358 79.7432L95.3376 75.2692L91.9616 71.1176L93.6948 69.7082L101.889 79.7849L100.156 81.1943L96.6159 76.8411L91.114 81.3151L94.6539 85.6683L92.9207 87.0777Z" fill="white"/>
<path d="M111.623 73.9646C109.923 74.9338 108.188 75.1758 106.416 74.6907C104.651 74.182 103.301 73.1077 102.366 71.4679C101.431 69.828 101.199 68.1266 101.669 66.3637C102.146 64.5771 103.234 63.1992 104.934 62.2301C106.619 61.2695 108.344 61.0436 110.109 61.5523C111.88 62.0374 113.234 63.0999 114.168 64.7397C115.103 66.3796 115.332 68.0928 114.856 69.8794C114.386 71.6423 113.308 73.0041 111.623 73.9646ZM107.082 72.6068C108.265 72.9689 109.436 72.8197 110.594 72.1593C111.753 71.4989 112.47 70.5718 112.746 69.3778C113.022 68.1838 112.834 67.0152 112.183 65.8718C111.531 64.7284 110.621 63.9714 109.453 63.6008C108.285 63.2302 107.121 63.375 105.963 64.0354C104.805 64.6958 104.08 65.6272 103.789 66.8298C103.512 68.0238 103.7 69.1924 104.352 70.3358C105.004 71.4791 105.914 72.2362 107.082 72.6068Z" fill="white"/>
<path d="M121.172 68.7508L116.643 56.5784L121.95 54.6035C123.297 54.1023 124.439 54.019 125.377 54.3538C126.314 54.6886 126.97 55.3591 127.345 56.3653C127.701 57.3229 127.596 58.258 127.031 59.1707C128.603 59.3247 129.637 60.0671 130.132 61.3979C130.513 62.4204 130.461 63.4003 129.979 64.3375C129.496 65.2746 128.524 66.015 127.064 66.5586L121.172 68.7508ZM122.586 66.1459L126.506 64.6874C127.155 64.4458 127.606 64.0933 127.858 63.6298C128.127 63.1602 128.156 62.6414 127.944 62.0734C127.733 61.5053 127.375 61.1396 126.871 60.9762C126.377 60.7905 125.805 60.8184 125.156 61.06L121.237 62.5185L122.586 66.1459ZM120.611 60.8387L123.995 59.5795C125.245 59.1145 125.668 58.3383 125.263 57.2509C125.052 56.6828 124.722 56.3435 124.274 56.2329C123.821 56.1061 123.326 56.1423 122.791 56.3416L119.407 57.6008L120.611 60.8387Z" fill="white"/>
<path d="M147.538 61.3946L145.133 48.6313L147.328 48.2177L149.733 60.9809L147.538 61.3946ZM135.745 63.6168L133.34 50.8535L135.535 50.4399L136.401 55.0346L139.362 54.4767C140.894 54.1881 142.126 54.37 143.06 55.0223C144.01 55.6714 144.59 56.549 144.798 57.6552C145.01 58.7784 144.793 59.8237 144.147 60.7913C143.498 61.7418 142.407 62.3614 140.876 62.65L135.745 63.6168ZM136.776 57.0257L137.565 61.2121L140.424 60.6733C141.241 60.5194 141.835 60.2136 142.207 59.7558C142.596 59.2949 142.728 58.7325 142.603 58.0688C142.478 57.4052 142.16 56.9363 141.651 56.6623C141.141 56.3883 140.477 56.3283 139.661 56.4822L136.776 57.0257Z" fill="white"/>
<path d="M156.894 60.5845L154.894 60.5925L154.842 47.6047L157.076 47.5958L157.114 57.1289L164.401 47.5667L166.375 47.5589L166.427 60.5466L164.219 60.5554L164.181 51.0224L156.894 60.5845ZM163.739 44.4003C162.963 45.1653 161.986 45.5502 160.809 45.5549C159.631 45.5596 158.642 45.1825 157.843 44.4237C157.06 43.6649 156.667 42.6707 156.662 41.4412L156.661 41.1035L158.427 41.0965L158.428 41.4342C158.432 42.2654 158.651 42.9139 159.085 43.3797C159.538 43.8282 160.11 44.051 160.803 44.0483C161.495 44.0455 162.057 43.8182 162.488 43.3662C162.937 42.8969 163.159 42.2466 163.156 41.4154L163.155 41.0777L164.921 41.0707L164.922 41.4083C164.927 42.6378 164.533 43.6352 163.739 44.4003Z" fill="white"/>
<path d="M178.587 62.0334C178.014 61.8997 177.64 61.7858 177.467 61.692L177.921 59.7441C178.031 59.8054 178.297 59.8852 178.719 59.9836C179.242 60.1056 179.671 60.019 180.006 59.7239C180.346 59.4119 180.624 58.7921 180.84 57.8646L182.794 49.4915L192.558 51.7698L189.607 64.4179L187.432 63.9103L189.917 53.2606L184.503 51.9975L182.91 58.8275C182.607 60.1261 182.062 61.0483 181.277 61.5941C180.496 62.1231 179.599 62.2695 178.587 62.0334Z" fill="white"/>
<path d="M196.79 66.8552L194.944 66.0844L199.949 54.0997L202.011 54.9606L198.337 63.7574L208.77 57.7835L210.592 58.5443L205.586 70.529L203.549 69.6781L207.223 60.8814L196.79 66.8552Z" fill="white"/>
<path d="M210.934 70.8433L211.196 71.0123C212.244 71.688 213.528 70.8471 215.049 68.4894L218.695 62.8355L227.361 68.4246L221.435 77.6149L223.072 78.6708L220.186 83.1459L218.418 82.0056L220.191 79.255L211.59 73.7082L209.817 76.4588L208.048 75.3184L210.934 70.8433ZM219.46 65.7708L216.729 70.0058C215.847 71.3738 214.927 72.3053 213.969 72.8002L219.557 76.4042L224.372 68.9384L219.46 65.7708Z" fill="white"/>
<path d="M229.135 86.9642C227.738 85.6947 227.009 84.1666 226.948 82.3796C226.9 80.6044 227.528 78.9991 228.833 77.5637C230.149 76.1155 231.674 75.3255 233.409 75.1935C235.168 75.0604 236.784 75.6635 238.258 77.0029C239.744 78.3538 240.433 79.9391 240.324 81.7587C240.215 83.5782 239.416 85.204 237.928 86.6359L230.104 79.5257C229.337 80.4205 228.994 81.4421 229.073 82.5907C229.164 83.7264 229.645 84.6903 230.517 85.4822C231.824 86.6702 233.242 86.9763 234.772 86.4006L236.464 87.9379C235.405 88.6137 234.21 88.8853 232.88 88.7528C231.55 88.6202 230.301 88.024 229.135 86.9642ZM238.147 80.833C238.04 79.8941 237.616 79.0869 236.872 78.4114C236.129 77.736 235.259 77.3546 234.262 77.2674C233.277 77.1919 232.313 77.5322 231.368 78.2884L237.366 83.7389C238.004 82.7277 238.264 81.7591 238.147 80.833Z" fill="white"/>
<path d="M234.482 99.818L233.106 98.058L247.616 86.7158L248.991 88.4758L247.416 89.7076C248.211 89.657 249.024 89.8244 249.852 90.2097C250.705 90.5979 251.425 91.1673 252.012 91.9176C253.121 93.3366 253.53 94.9288 253.24 96.6944C252.96 98.4736 252.084 99.9391 250.61 101.091C249.137 102.243 247.503 102.74 245.709 102.581C243.925 102.437 242.479 101.655 241.37 100.236C240.783 99.486 240.398 98.6553 240.213 97.7445C240.053 96.8366 240.094 96.0027 240.335 95.2427L234.482 99.818ZM241.891 95.3779C241.694 96.5873 241.989 97.6969 242.779 98.7065C243.568 99.7161 244.573 100.271 245.794 100.371C247.016 100.472 248.152 100.111 249.202 99.29C250.253 98.4688 250.877 97.4535 251.074 96.244C251.272 95.0345 250.976 93.925 250.187 92.9154C249.398 91.9058 248.392 91.3508 247.171 91.2505C245.95 91.1502 244.814 91.5107 243.763 92.3319C242.713 93.1531 242.089 94.1684 241.891 95.3779Z" fill="white"/>
<path d="M251.08 114.594L262.92 109.255L263.838 111.291L258.96 113.491L261.875 119.955L266.753 117.756L267.672 119.792L255.832 125.131L254.914 123.095L260.028 120.788L257.113 114.324L251.998 116.63L251.08 114.594Z" fill="white"/>
<path d="M258.883 135.915C258.44 134.169 258.705 132.539 259.677 131.023C260.655 129.524 262.05 128.545 263.862 128.084C265.675 127.624 267.368 127.819 268.942 128.67C270.521 129.538 271.531 130.844 271.975 132.59C272.209 133.513 272.217 134.422 271.998 135.318C271.799 136.226 271.437 136.979 270.91 137.577L272.848 137.085L273.398 139.25L260.81 142.447L260.26 140.282L262.199 139.79C261.45 139.515 260.764 139.029 260.14 138.329C259.536 137.643 259.118 136.838 258.883 135.915ZM260.955 135.737C261.271 136.979 261.967 137.892 263.044 138.476C264.122 139.06 265.307 139.188 266.599 138.86C267.892 138.531 268.872 137.854 269.54 136.826C270.208 135.799 270.384 134.664 270.069 133.422C269.749 132.163 269.051 131.242 267.973 130.658C266.896 130.074 265.711 129.946 264.419 130.275C263.126 130.603 262.146 131.281 261.478 132.308C260.81 133.335 260.635 134.478 260.955 135.737Z" fill="white"/>
<path d="M256.971 156.633L256.946 154.4L275.361 154.193L275.386 156.426L273.386 156.449C274.05 156.892 274.593 157.518 275.018 158.327C275.46 159.153 275.687 160.043 275.698 160.995C275.718 162.796 275.077 164.31 273.774 165.537C272.472 166.781 270.886 167.413 269.016 167.435C267.146 167.456 265.546 166.859 264.216 165.644C262.886 164.447 262.211 162.948 262.191 161.147C262.18 160.194 262.378 159.3 262.784 158.464C263.208 157.646 263.746 157.008 264.399 156.55L256.971 156.633ZM265.554 157.602C264.663 158.443 264.225 159.505 264.239 160.786C264.254 162.067 264.716 163.119 265.626 163.94C266.535 164.761 267.657 165.164 268.99 165.149C270.324 165.134 271.436 164.706 272.327 163.864C273.218 163.023 273.656 161.962 273.642 160.68C273.627 159.399 273.165 158.348 272.256 157.527C271.346 156.706 270.224 156.303 268.891 156.318C267.558 156.333 266.445 156.761 265.554 157.602Z" fill="white"/>
<path d="M260.145 183.642L272.944 185.848L272.565 188.049L259.766 185.843L260.145 183.642ZM262.183 171.815L274.982 174.021L274.603 176.223L269.995 175.429L269.484 178.398C269.219 179.934 268.618 181.025 267.68 181.672C266.74 182.336 265.715 182.572 264.606 182.381C263.48 182.187 262.576 181.618 261.895 180.675C261.231 179.735 261.032 178.497 261.296 176.961L262.183 171.815ZM267.999 175.085L263.801 174.361L263.306 177.228C263.165 178.047 263.244 178.711 263.543 179.219C263.839 179.745 264.32 180.065 264.985 180.18C265.651 180.294 266.201 180.161 266.636 179.779C267.071 179.397 267.359 178.796 267.5 177.977L267.999 175.085Z" fill="white"/>
<path d="M258.398 190.636L270.594 195.101L269.826 197.199L264.801 195.359L262.363 202.018L267.388 203.858L266.62 205.956L254.424 201.49L255.192 199.393L260.46 201.322L262.898 194.663L257.63 192.734L258.398 190.636Z" fill="white"/>
<path d="M247.628 214.461L255.86 211.638L250.81 208.8L251.905 206.852L263.227 213.216L262.132 215.164L257.105 212.338L259.306 220.191L257.919 222.659L255.49 213.993L246.126 217.133L247.628 214.461Z" fill="white"/>
<path d="M240.969 223.472C242.133 221.987 243.604 221.148 245.381 220.957C247.148 220.779 248.795 221.288 250.322 222.485C251.863 223.691 252.762 225.155 253.02 226.875C253.281 228.62 252.798 230.276 251.57 231.843C250.331 233.425 248.8 234.227 246.978 234.251C245.155 234.275 243.475 233.597 241.938 232.217L248.458 223.895C247.51 223.196 246.466 222.928 245.326 223.091C244.2 223.265 243.274 223.815 242.548 224.742C241.458 226.133 241.257 227.57 241.943 229.053L240.533 230.852C239.782 229.846 239.423 228.674 239.459 227.338C239.494 226.001 239.997 224.713 240.969 223.472ZM247.742 232.012C248.67 231.838 249.444 231.355 250.064 230.565C250.683 229.774 251 228.878 251.014 227.877C251.018 226.89 250.608 225.953 249.785 225.066L244.787 231.446C245.842 232.009 246.827 232.197 247.742 232.012Z" fill="white"/>
<path d="M224.699 240.026C225.97 239.009 227.341 238.477 228.812 238.431C230.294 238.398 231.633 238.824 232.828 239.708L230.963 241.201C230.189 240.734 229.361 240.531 228.48 240.593C227.598 240.656 226.765 241.001 225.981 241.629C225.048 242.375 224.493 243.275 224.315 244.327C224.134 245.403 224.333 246.442 224.912 247.442L229.616 243.676L230.785 245.136L226.101 248.886C226.934 249.594 227.873 249.963 228.916 249.993C229.971 250.036 230.952 249.695 231.857 248.97C232.641 248.342 233.16 247.605 233.414 246.758C233.668 245.912 233.652 245.06 233.365 244.202L235.231 242.709C235.818 244.08 235.928 245.478 235.561 246.904C235.204 248.343 234.397 249.565 233.14 250.572C231.612 251.794 229.937 252.293 228.114 252.066C226.302 251.853 224.806 251.009 223.626 249.536C222.447 248.062 221.946 246.411 222.124 244.583C222.313 242.768 223.171 241.249 224.699 240.026Z" fill="white"/>
<path d="M216.049 246.612C216.563 246.324 216.915 246.156 217.107 246.108L218.084 247.853C217.961 247.882 217.711 248.003 217.334 248.214C216.865 248.477 216.606 248.83 216.558 249.274C216.517 249.733 216.73 250.379 217.195 251.21L221.396 258.711L212.648 263.611L206.302 252.279L208.251 251.187L213.594 260.729L218.444 258.012L215.017 251.893C214.366 250.73 214.146 249.682 214.358 248.749C214.579 247.832 215.142 247.119 216.049 246.612Z" fill="white"/>
<path d="M196.248 256.179C198.022 255.534 199.713 255.601 201.323 256.379C202.917 257.163 204.045 258.466 204.708 260.289C205.376 262.128 205.365 263.846 204.674 265.442C203.973 267.061 202.687 268.21 200.815 268.891C198.927 269.577 197.204 269.449 195.644 268.505C194.085 267.561 193.018 266.097 192.444 264.113L202.38 260.5C201.945 259.405 201.2 258.625 200.147 258.161C199.099 257.713 198.022 257.69 196.916 258.092C195.256 258.696 194.324 259.808 194.122 261.43L191.973 262.211C191.868 260.959 192.184 259.776 192.921 258.66C193.658 257.545 194.767 256.718 196.248 256.179ZM197.477 267.009C198.358 267.352 199.27 267.352 200.214 267.009C201.158 266.666 201.9 266.073 202.442 265.231C202.967 264.395 203.115 263.383 202.886 262.195L195.269 264.965C195.867 266.001 196.603 266.682 197.477 267.009Z" fill="white"/>
<path d="M177.191 261.465L184.678 265.9L183.563 260.216L185.755 259.786L188.254 272.531L186.062 272.961L184.952 267.302L180.403 274.071L177.624 274.615L182.645 267.146L174.183 262.055L177.191 261.465Z" fill="white"/>
<path d="M169.214 262.329L169.933 273.241L174.055 272.97L174.189 275.017L163.537 275.719L163.402 273.671L167.704 273.388L166.985 262.476L169.214 262.329Z" fill="white"/>
<path d="M158.329 257.235L160.556 257.404L159.158 275.768L156.931 275.599L157.083 273.604C156.584 274.226 155.913 274.713 155.07 275.066C154.208 275.435 153.302 275.583 152.353 275.511C150.557 275.374 149.105 274.603 147.996 273.199C146.87 271.793 146.378 270.158 146.52 268.293C146.661 266.429 147.395 264.887 148.721 263.668C150.03 262.447 151.582 261.905 153.378 262.042C154.328 262.114 155.201 262.389 155.998 262.867C156.777 263.36 157.366 263.952 157.765 264.643L158.329 257.235ZM156.616 265.701C155.856 264.74 154.837 264.211 153.559 264.114C152.281 264.017 151.194 264.385 150.296 265.22C149.399 266.055 148.9 267.137 148.799 268.467C148.698 269.796 149.027 270.942 149.788 271.903C150.548 272.864 151.567 273.393 152.845 273.49C154.123 273.587 155.21 273.219 156.108 272.384C157.005 271.549 157.504 270.467 157.605 269.137C157.706 267.808 157.377 266.662 156.616 265.701Z" fill="white"/>
<path d="M137.14 259.406C139.039 259.878 140.462 260.902 141.409 262.476C142.334 264.062 142.569 265.771 142.113 267.603C141.658 269.435 140.651 270.826 139.094 271.777C137.516 272.741 135.777 272.986 133.878 272.513C131.996 272.045 130.592 271.018 129.666 269.431C128.72 267.857 128.474 266.154 128.93 264.322C129.386 262.491 130.403 261.093 131.981 260.13C133.538 259.179 135.258 258.937 137.14 259.406ZM139.488 263.524C138.882 262.445 137.932 261.744 136.638 261.422C135.344 261.1 134.185 261.276 133.161 261.949C132.137 262.622 131.466 263.597 131.148 264.874C130.831 266.152 130.966 267.327 131.555 268.402C132.145 269.477 133.086 270.175 134.38 270.497C135.674 270.819 136.841 270.645 137.882 269.977C138.906 269.303 139.577 268.328 139.895 267.051C140.213 265.774 140.077 264.598 139.488 263.524Z" fill="white"/>
<path d="M127.025 256.833L121.842 268.742L119.794 267.85L121.929 262.944L115.427 260.114L113.291 265.02L111.243 264.128L116.427 252.22L118.475 253.111L116.236 258.256L122.738 261.086L124.977 255.942L127.025 256.833Z" fill="white"/>
<path d="M111.2 249.526L104.037 260.36L102.174 259.128L105.125 254.665L99.2098 250.753L96.2585 255.217L94.395 253.985L101.558 243.151L103.422 244.383L100.327 249.063L106.242 252.975L109.337 248.294L111.2 249.526Z" fill="white"/>
<path d="M87.7799 230.921L78.7527 240.258L77.1466 238.706L86.1738 229.368L87.7799 230.921ZM96.408 239.262L87.3809 248.599L85.7748 247.047L89.0245 243.685L86.8582 241.591C85.7376 240.508 85.1739 239.397 85.1668 238.258C85.1474 237.107 85.5288 236.127 86.3112 235.318C87.1056 234.496 88.0842 234.069 89.2471 234.037C90.398 234.018 91.5337 234.549 92.6542 235.633L96.408 239.262ZM90.4328 242.229L93.3937 239.166L91.302 237.144C90.7044 236.566 90.1114 236.257 89.5228 236.218C88.9219 236.167 88.3867 236.385 87.9173 236.87C87.4479 237.356 87.2486 237.886 87.3196 238.46C87.3905 239.035 87.7248 239.611 88.3224 240.188L90.4328 242.229Z" fill="white"/>
<path d="M78.0176 218.739L76.4168 224.833L82.7117 225.089L84.3639 227.324L75.9138 226.949L73.6574 234.69L72.0515 232.518L73.7014 226.84L67.8052 226.773L66.1839 224.58L74.2616 224.714L76.3809 216.525L78.0176 218.739Z" fill="white"/>
<path d="M69.1268 202.102C69.911 203.895 69.965 205.639 69.2887 207.333C68.5964 209.035 67.3857 210.264 65.6563 211.02C63.927 211.777 62.2106 211.828 60.5071 211.175C58.7877 210.528 57.5359 209.308 56.7516 207.516C56.1062 206.04 55.96 204.582 56.3131 203.143C56.6503 201.71 57.3975 200.523 58.5547 199.582L59.5125 201.771C58.86 202.397 58.4494 203.144 58.2808 204.011C58.1122 204.879 58.2292 205.773 58.6317 206.693C59.1661 207.915 60.0158 208.734 61.1809 209.15C62.3391 209.551 63.529 209.484 64.7506 208.95C65.9723 208.415 66.829 207.587 67.3209 206.465C67.8058 205.326 67.7811 204.146 67.2467 202.925C66.8442 202.004 66.2671 201.312 65.5155 200.847C64.7639 200.382 63.937 200.176 63.0346 200.231L62.0769 198.041C63.5464 197.814 64.9296 198.06 66.2266 198.778C67.5077 199.503 68.4744 200.611 69.1268 202.102Z" fill="white"/>
<path d="M64.4897 190.473L64.9749 192.414L52.375 195.564L51.8331 193.397L61.0814 191.084L50.056 186.291L49.5771 184.376L62.177 181.225L62.7126 183.367L53.4643 185.68L64.4897 190.473Z" fill="white"/>
<path d="M61.2902 175.413L48.375 176.785L47.5161 168.7L49.5567 168.484L50.1796 174.347L61.0542 173.192L61.2902 175.413Z" fill="white"/>
<path d="M60.6769 159.29C60.6186 161.09 59.9119 162.583 58.5567 163.769C57.2021 164.938 55.5901 165.492 53.7209 165.432C51.8516 165.371 50.2788 164.714 49.0026 163.46C47.727 162.188 47.1183 160.653 47.1766 158.853C47.2074 157.901 47.4523 157.025 47.9114 156.225C48.3536 155.408 48.9109 154.785 49.5832 154.356L47.5841 154.292L47.6564 152.059L60.6374 152.479L60.5652 154.712L58.5661 154.647C59.2092 155.118 59.7337 155.776 60.1395 156.621C60.5286 157.448 60.7077 158.338 60.6769 159.29ZM58.6368 158.886C58.6783 157.605 58.2624 156.534 57.3893 155.675C56.5162 154.815 55.4132 154.363 54.0805 154.32C52.7478 154.277 51.618 154.656 50.6911 155.458C49.7642 156.259 49.28 157.301 49.2385 158.581C49.1965 159.88 49.6121 160.959 50.4852 161.818C51.3583 162.678 52.4612 163.13 53.794 163.173C55.1267 163.216 56.2565 162.837 57.1834 162.035C58.1103 161.234 58.5948 160.184 58.6368 158.886Z" fill="white"/>
<path d="M66.9827 146.175L66.5311 148.363L48.4946 144.64L48.9463 142.452L50.9051 142.856C50.3517 142.282 49.9537 141.555 49.7112 140.674C49.4553 139.772 49.4236 138.855 49.6162 137.922C49.9803 136.158 50.9293 134.816 52.4633 133.895C54.0008 132.957 55.6854 132.677 57.517 133.055C59.3487 133.433 60.7847 134.357 61.825 135.827C62.8689 137.281 63.2087 138.889 62.8446 140.653C62.652 141.586 62.2682 142.417 61.6931 143.147C61.1046 143.857 60.4426 144.366 59.7071 144.673L66.9827 146.175ZM58.8031 143.399C59.853 142.767 60.5076 141.824 60.7666 140.569C61.0257 139.314 60.7983 138.188 60.0845 137.192C59.3706 136.196 58.3608 135.563 57.0549 135.294C55.749 135.024 54.5711 135.205 53.5211 135.837C52.4712 136.469 51.8167 137.413 51.5576 138.668C51.2985 139.923 51.5259 141.048 52.2397 142.044C52.9536 143.041 53.9635 143.673 55.2693 143.943C56.5752 144.213 57.7531 144.031 58.8031 143.399Z" fill="white"/>
<path d="M67.3251 125.479C66.6433 127.239 65.4798 128.469 63.8345 129.169C62.1954 129.853 60.4716 129.844 58.663 129.144C56.8383 128.437 55.5523 127.298 54.805 125.727C54.0479 124.134 54.029 122.409 54.7482 120.552C55.4738 118.679 56.705 117.466 58.442 116.913C60.1789 116.36 61.9832 116.52 63.8548 117.394L60.0364 127.252C61.147 127.645 62.2238 127.598 63.2668 127.11C64.2937 126.617 65.0198 125.821 65.4451 124.723C66.0831 123.076 65.8583 121.642 64.7708 120.423L65.5964 118.291C66.6079 119.036 67.2912 120.052 67.6463 121.341C68.0013 122.63 67.8942 124.009 67.3251 125.479ZM58.3618 119.277C57.524 119.714 56.9237 120.401 56.561 121.338C56.1982 122.274 56.1556 123.223 56.433 124.185C56.7168 125.131 57.3814 125.908 58.4268 126.517L61.3539 118.96C60.1808 118.728 59.1834 118.834 58.3618 119.277Z" fill="white"/>
<path d="M72.8242 112.985L63.2911 107.627L61.2674 111.227L59.4785 110.222L64.7096 100.915L66.4984 101.921L64.3857 105.68L73.9187 111.038L72.8242 112.985Z" fill="white"/>
</svg>
