<svg width="216" height="53" viewBox="0 0 216 53" fill="none" xmlns="http://www.w3.org/2000/svg">
<path d="M3.312 52.762H1.332V40H3.312V41.206C3.588 40.822 3.984 40.498 4.5 40.234C5.028 39.958 5.598 39.82 6.21 39.82C7.434 39.82 8.46 40.276 9.288 41.188C10.128 42.1 10.548 43.204 10.548 44.5C10.548 45.796 10.128 46.9 9.288 47.812C8.46 48.724 7.434 49.18 6.21 49.18C5.598 49.18 5.028 49.048 4.5 48.784C3.984 48.508 3.588 48.178 3.312 47.794V52.762ZM5.85 47.38C6.63 47.38 7.272 47.104 7.776 46.552C8.28 46 8.532 45.316 8.532 44.5C8.532 43.684 8.28 43 7.776 42.448C7.272 41.896 6.63 41.62 5.85 41.62C5.058 41.62 4.41 41.896 3.906 42.448C3.402 43 3.15 43.684 3.15 44.5C3.15 45.316 3.402 46 3.906 46.552C4.41 47.104 5.058 47.38 5.85 47.38ZM16.2544 49.18C15.0304 49.18 13.9984 48.724 13.1584 47.812C12.3304 46.9 11.9164 45.796 11.9164 44.5C11.9164 43.204 12.3304 42.1 13.1584 41.188C13.9984 40.276 15.0304 39.82 16.2544 39.82C16.8664 39.82 17.4304 39.958 17.9464 40.234C18.4624 40.498 18.8584 40.822 19.1344 41.206V40H21.1144V49H19.1344V47.794C18.8584 48.178 18.4624 48.508 17.9464 48.784C17.4304 49.048 16.8664 49.18 16.2544 49.18ZM14.6884 46.552C15.1924 47.104 15.8344 47.38 16.6144 47.38C17.3944 47.38 18.0364 47.104 18.5404 46.552C19.0444 46 19.2964 45.316 19.2964 44.5C19.2964 43.684 19.0444 43 18.5404 42.448C18.0364 41.896 17.3944 41.62 16.6144 41.62C15.8344 41.62 15.1924 41.896 14.6884 42.448C14.1844 43 13.9324 43.684 13.9324 44.5C13.9324 45.316 14.1844 46 14.6884 46.552ZM26.9108 49.18C25.9388 49.18 25.0868 48.946 24.3548 48.478C23.6228 47.998 23.1668 47.302 22.9868 46.39H25.0208C25.2848 47.158 25.9148 47.542 26.9108 47.542C27.4628 47.53 27.8828 47.41 28.1708 47.182C28.4708 46.954 28.6208 46.654 28.6208 46.282C28.6208 45.898 28.4828 45.604 28.2068 45.4C27.9308 45.184 27.5408 45.076 27.0368 45.076H25.9748V43.618H27.0008C27.4208 43.618 27.7508 43.528 27.9908 43.348C28.2308 43.156 28.3508 42.88 28.3508 42.52C28.3508 42.172 28.2188 41.902 27.9548 41.71C27.6908 41.506 27.3308 41.404 26.8748 41.404C25.9748 41.404 25.4108 41.77 25.1828 42.502H23.2028C23.3828 41.602 23.8148 40.93 24.4988 40.486C25.1948 40.042 25.9988 39.82 26.9108 39.82C27.9788 39.82 28.8008 40.072 29.3768 40.576C29.9528 41.068 30.2408 41.668 30.2408 42.376C30.2408 43.216 29.9168 43.846 29.2688 44.266C30.1688 44.722 30.6188 45.442 30.6188 46.426C30.6188 47.17 30.2888 47.818 29.6288 48.37C28.9808 48.91 28.0748 49.18 26.9108 49.18ZM34.6538 52.762H32.6738V40H34.6538V41.206C34.9298 40.822 35.3258 40.498 35.8418 40.234C36.3698 39.958 36.9398 39.82 37.5518 39.82C38.7758 39.82 39.8018 40.276 40.6298 41.188C41.4698 42.1 41.8898 43.204 41.8898 44.5C41.8898 45.796 41.4698 46.9 40.6298 47.812C39.8018 48.724 38.7758 49.18 37.5518 49.18C36.9398 49.18 36.3698 49.048 35.8418 48.784C35.3258 48.508 34.9298 48.178 34.6538 47.794V52.762ZM37.1918 47.38C37.9718 47.38 38.6138 47.104 39.1178 46.552C39.6218 46 39.8738 45.316 39.8738 44.5C39.8738 43.684 39.6218 43 39.1178 42.448C38.6138 41.896 37.9718 41.62 37.1918 41.62C36.3998 41.62 35.7518 41.896 35.2478 42.448C34.7438 43 34.4918 43.684 34.4918 44.5C34.4918 45.316 34.7438 46 35.2478 46.552C35.7518 47.104 36.3998 47.38 37.1918 47.38ZM47.5962 49.18C46.3722 49.18 45.3402 48.724 44.5002 47.812C43.6722 46.9 43.2582 45.796 43.2582 44.5C43.2582 43.204 43.6722 42.1 44.5002 41.188C45.3402 40.276 46.3722 39.82 47.5962 39.82C48.2082 39.82 48.7722 39.958 49.2882 40.234C49.8042 40.498 50.2002 40.822 50.4762 41.206V40H52.4562V49H50.4762V47.794C50.2002 48.178 49.8042 48.508 49.2882 48.784C48.7722 49.048 48.2082 49.18 47.5962 49.18ZM46.0302 46.552C46.5342 47.104 47.1762 47.38 47.9562 47.38C48.7362 47.38 49.3782 47.104 49.8822 46.552C50.3862 46 50.6382 45.316 50.6382 44.5C50.6382 43.684 50.3862 43 49.8822 42.448C49.3782 41.896 48.7362 41.62 47.9562 41.62C47.1762 41.62 46.5342 41.896 46.0302 42.448C45.5262 43 45.2742 43.684 45.2742 44.5C45.2742 45.316 45.5262 46 46.0302 46.552ZM59.4946 49.18C58.0306 49.18 56.8846 48.7 56.0566 47.74C55.2286 46.78 54.8146 45.496 54.8146 43.888V43.168C54.8146 40.936 55.2346 39.274 56.0746 38.182C56.9266 37.09 58.2526 36.37 60.0526 36.022L63.3106 35.428V37.318L60.4846 37.822C59.3086 38.038 58.4386 38.422 57.8746 38.974C57.3226 39.526 56.9806 40.33 56.8486 41.386C57.5926 40.522 58.5826 40.09 59.8186 40.09C61.1386 40.09 62.2006 40.516 63.0046 41.368C63.8086 42.208 64.2106 43.24 64.2106 44.464C64.2106 45.784 63.7546 46.9 62.8426 47.812C61.9426 48.724 60.8266 49.18 59.4946 49.18ZM57.5326 46.57C58.0366 47.086 58.6846 47.344 59.4766 47.344C60.2686 47.344 60.9166 47.086 61.4206 46.57C61.9366 46.042 62.1946 45.352 62.1946 44.5C62.1946 43.744 61.9366 43.114 61.4206 42.61C60.9166 42.106 60.2746 41.854 59.4946 41.854C58.7026 41.854 58.0546 42.112 57.5506 42.628C57.0466 43.144 56.7946 43.768 56.7946 44.5C56.7946 45.352 57.0406 46.042 57.5326 46.57ZM73.6464 47.83C72.7464 48.73 71.6304 49.18 70.2984 49.18C68.9664 49.18 67.8444 48.73 66.9324 47.83C66.0324 46.918 65.5824 45.808 65.5824 44.5C65.5824 43.192 66.0324 42.088 66.9324 41.188C67.8444 40.276 68.9664 39.82 70.2984 39.82C71.6304 39.82 72.7464 40.276 73.6464 41.188C74.5584 42.088 75.0144 43.192 75.0144 44.5C75.0144 45.808 74.5584 46.918 73.6464 47.83ZM70.2984 47.344C71.0784 47.344 71.7204 47.074 72.2244 46.534C72.7404 45.982 72.9984 45.304 72.9984 44.5C72.9984 43.696 72.7404 43.024 72.2244 42.484C71.7204 41.932 71.0784 41.656 70.2984 41.656C69.5064 41.656 68.8524 41.932 68.3364 42.484C67.8324 43.024 67.5804 43.696 67.5804 44.5C67.5804 45.304 67.8324 45.982 68.3364 46.534C68.8524 47.074 69.5064 47.344 70.2984 47.344ZM78.4337 49V41.764H75.7337V40H83.2397V41.764H80.4137V49H78.4337ZM90.8744 49L86.8784 45.166V49H84.8984V40H86.8784V43.852L90.4244 40H92.8364L88.7504 44.428L93.4844 49H90.8744ZM97.7642 49.18C96.5402 49.18 95.5082 48.724 94.6682 47.812C93.8402 46.9 93.4262 45.796 93.4262 44.5C93.4262 43.204 93.8402 42.1 94.6682 41.188C95.5082 40.276 96.5402 39.82 97.7642 39.82C98.3762 39.82 98.9402 39.958 99.4562 40.234C99.9722 40.498 100.368 40.822 100.644 41.206V40H102.624V49H100.644V47.794C100.368 48.178 99.9722 48.508 99.4562 48.784C98.9402 49.048 98.3762 49.18 97.7642 49.18ZM96.1982 46.552C96.7022 47.104 97.3442 47.38 98.1242 47.38C98.9042 47.38 99.5462 47.104 100.05 46.552C100.554 46 100.806 45.316 100.806 44.5C100.806 43.684 100.554 43 100.05 42.448C99.5462 41.896 98.9042 41.62 98.1242 41.62C97.3442 41.62 96.7022 41.896 96.1982 42.448C95.6942 43 95.4422 43.684 95.4422 44.5C95.4422 45.316 95.6942 46 96.1982 46.552ZM113.611 49.18C112.255 49.18 111.127 48.73 110.227 47.83C109.339 46.918 108.895 45.808 108.895 44.5C108.895 43.192 109.339 42.088 110.227 41.188C111.127 40.276 112.255 39.82 113.611 39.82C114.775 39.82 115.765 40.144 116.581 40.792C117.409 41.44 117.943 42.274 118.183 43.294H116.095C115.915 42.79 115.603 42.388 115.159 42.088C114.727 41.776 114.211 41.62 113.611 41.62C112.819 41.62 112.171 41.89 111.667 42.43C111.163 42.97 110.911 43.66 110.911 44.5C110.911 45.34 111.163 46.03 111.667 46.57C112.171 47.11 112.819 47.38 113.611 47.38C114.211 47.38 114.727 47.23 115.159 46.93C115.603 46.618 115.915 46.21 116.095 45.706H118.183C117.943 46.726 117.409 47.56 116.581 48.208C115.765 48.856 114.775 49.18 113.611 49.18ZM123.745 49.18C122.521 49.18 121.489 48.724 120.649 47.812C119.821 46.9 119.407 45.796 119.407 44.5C119.407 43.204 119.821 42.1 120.649 41.188C121.489 40.276 122.521 39.82 123.745 39.82C124.357 39.82 124.921 39.958 125.437 40.234C125.953 40.498 126.349 40.822 126.625 41.206V40H128.605V49H126.625V47.794C126.349 48.178 125.953 48.508 125.437 48.784C124.921 49.048 124.357 49.18 123.745 49.18ZM122.179 46.552C122.683 47.104 123.325 47.38 124.105 47.38C124.885 47.38 125.527 47.104 126.031 46.552C126.535 46 126.787 45.316 126.787 44.5C126.787 43.684 126.535 43 126.031 42.448C125.527 41.896 124.885 41.62 124.105 41.62C123.325 41.62 122.683 41.896 122.179 42.448C121.675 43 121.423 43.684 121.423 44.5C121.423 45.316 121.675 46 122.179 46.552ZM133.051 49H131.287V40H133.267V45.994L137.857 40H139.621V49H137.641V43.006L133.051 49ZM137.713 37.948C137.149 38.488 136.441 38.758 135.589 38.758C134.737 38.758 134.023 38.488 133.447 37.948C132.883 37.396 132.601 36.67 132.601 35.77V35.5H134.005V35.77C134.005 36.322 134.155 36.76 134.455 37.084C134.755 37.396 135.133 37.552 135.589 37.552C136.045 37.552 136.423 37.396 136.723 37.084C137.023 36.76 137.173 36.322 137.173 35.77V35.5H138.577V35.77C138.577 36.67 138.289 37.396 137.713 37.948ZM143.965 49V41.764H141.265V40H148.771V41.764H145.945V49H143.965ZM153.874 49.18C152.65 49.18 151.618 48.724 150.778 47.812C149.95 46.9 149.536 45.796 149.536 44.5C149.536 43.204 149.95 42.1 150.778 41.188C151.618 40.276 152.65 39.82 153.874 39.82C154.486 39.82 155.05 39.958 155.566 40.234C156.082 40.498 156.478 40.822 156.754 41.206V40H158.734V49H156.754V47.794C156.478 48.178 156.082 48.508 155.566 48.784C155.05 49.048 154.486 49.18 153.874 49.18ZM152.308 46.552C152.812 47.104 153.454 47.38 154.234 47.38C155.014 47.38 155.656 47.104 156.16 46.552C156.664 46 156.916 45.316 156.916 44.5C156.916 43.684 156.664 43 156.16 42.448C155.656 41.896 155.014 41.62 154.234 41.62C153.454 41.62 152.812 41.896 152.308 42.448C151.804 43 151.552 43.684 151.552 44.5C151.552 45.316 151.804 46 152.308 46.552Z" fill="#858F9D"/>
<path d="M187.297 2.9197L166.486 23.7307C165.113 25.1037 165.113 27.3299 166.486 28.7029L187.297 49.5139C188.67 50.8869 190.896 50.8869 192.269 49.5139L213.08 28.7029C214.453 27.3299 214.453 25.1037 213.08 23.7307L192.269 2.9197C190.896 1.54666 188.67 1.54666 187.297 2.9197Z" fill="white"/>
<path d="M189.84 40.9828C197.996 40.9828 204.607 34.3717 204.607 26.2166C204.607 18.0615 197.996 11.4504 189.84 11.4504C181.685 11.4504 175.074 18.0615 175.074 26.2166C175.074 34.3717 181.685 40.9828 189.84 40.9828Z" fill="#1E2125"/>
<path d="M195.689 16.9883H184.132C182.19 16.9883 180.616 18.5624 180.616 20.5042V32.0614C180.616 34.0032 182.19 35.5773 184.132 35.5773H195.689C197.631 35.5773 199.205 34.0032 199.205 32.0614V20.5042C199.205 18.5624 197.631 16.9883 195.689 16.9883Z" fill="white"/>
<path d="M189.817 32.6261C193.371 32.6261 196.251 29.7452 196.251 26.1915C196.251 22.6377 193.371 19.7568 189.817 19.7568C186.263 19.7568 183.382 22.6377 183.382 26.1915C183.382 29.7452 186.263 32.6261 189.817 32.6261Z" fill="#1E2125"/>
<path d="M189.191 24.0962L187.899 25.3881C187.442 25.8458 187.442 26.5878 187.899 27.0455L189.191 28.3374C189.649 28.7951 190.391 28.7951 190.848 28.3374L192.14 27.0455C192.598 26.5878 192.598 25.8458 192.14 25.3881L190.848 24.0962C190.391 23.6385 189.649 23.6385 189.191 24.0962Z" fill="white"/>
<path d="M5.72986 11.6817V17.4336H3V2.06586C3.76939 2.06586 4.60537 2.05851 5.50792 2.04391C6.41048 2.02931 7.15028 2.02195 7.72733 2.02195C11.4855 2.02195 13.3646 3.60263 13.3646 6.764C13.3646 7.93491 13.0613 8.90088 12.4547 9.66191C11.848 10.3937 11.1526 10.8913 10.3684 11.1548L15.2289 17.4336H11.922L7.63855 11.6817H5.72986ZM7.59416 4.54665C7.52018 4.54665 7.40182 4.55401 7.23906 4.56861C7.0763 4.56861 6.84697 4.57596 6.55104 4.59056C6.25512 4.59056 5.9814 4.59056 5.72986 4.59056V9.15697H7.50539C8.37835 9.15697 9.08856 8.94479 9.63601 8.52031C10.1983 8.09583 10.4794 7.51778 10.4794 6.78595C10.4794 5.29308 9.51764 4.54665 7.59416 4.54665ZM23.8 14.6674L24.5324 16.4457C23.541 17.2653 22.2686 17.6751 20.715 17.6751C19.1171 17.6751 17.8149 17.1994 16.8089 16.2481C15.8324 15.3114 15.3441 14.06 15.3441 12.494C15.3441 11.0304 15.8249 9.80099 16.7867 8.80571C17.7484 7.81043 19.0283 7.31284 20.6263 7.31284C21.943 7.31284 23.0602 7.74457 23.9776 8.60812C24.8948 9.47168 25.3536 10.5694 25.3536 11.9012C25.3536 12.4866 25.3018 12.9404 25.1982 13.2624H17.9852C18.0887 13.9795 18.4069 14.543 18.9395 14.9528C19.4869 15.3626 20.1675 15.5675 20.9814 15.5675C22.0911 15.5675 23.0305 15.2675 23.8 14.6674ZM20.5153 9.42042C19.0652 9.42042 18.1922 10.1375 17.8964 11.5719H22.8013C22.816 10.9426 22.6089 10.4303 22.1798 10.0351C21.7655 9.62536 21.2106 9.42042 20.5153 9.42042ZM36.9321 21.8244H34.3798V16.9287C33.6103 17.4262 32.7891 17.6751 31.9162 17.6751C30.333 17.6751 29.068 17.2067 28.1211 16.27C27.1889 15.3187 26.7228 14.06 26.7228 12.494C26.7228 11.0157 27.2628 9.78628 28.343 8.80571C29.4378 7.81043 30.8065 7.31284 32.4489 7.31284C34.1652 7.31284 35.6596 7.70801 36.9321 8.49836V21.8244ZM32.2492 15.326C33.1073 15.326 33.8175 15.026 34.3798 14.4259V10.1669C33.714 9.8449 33.0629 9.68386 32.4267 9.68386C31.5093 9.68386 30.7844 9.96191 30.2517 10.5181C29.719 11.0596 29.4527 11.7549 29.4527 12.6037C29.4527 13.3941 29.7042 14.0453 30.2073 14.5576C30.7251 15.0699 31.4058 15.326 32.2492 15.326ZM46.2223 7.55434H48.7746V17.4336H46.2223V16.2261C45.4233 17.1921 44.358 17.6751 43.0264 17.6751C41.961 17.6751 41.1103 17.3238 40.474 16.6213C39.8379 15.9188 39.5197 14.9089 39.5197 13.5917V7.55434H42.072V13.0648C42.072 14.5722 42.7083 15.326 43.9807 15.326C44.8537 15.326 45.6009 14.9235 46.2223 14.1186V7.55434ZM59.4535 14.6674L60.1859 16.4457C59.1945 17.2653 57.9221 17.6751 56.3685 17.6751C54.7705 17.6751 53.4684 17.1994 52.4624 16.2481C51.4858 15.3114 50.9976 14.06 50.9976 12.494C50.9976 11.0304 51.4784 9.80099 52.4402 8.80571C53.4018 7.81043 54.6818 7.31284 56.2797 7.31284C57.5965 7.31284 58.7136 7.74457 59.631 8.60812C60.5483 9.47168 61.0071 10.5694 61.0071 11.9012C61.0071 12.4866 60.9552 12.9404 60.8517 13.2624H53.6386C53.7422 13.9795 54.0603 14.543 54.593 14.9528C55.1404 15.3626 55.821 15.5675 56.6348 15.5675C57.7445 15.5675 58.684 15.2675 59.4535 14.6674ZM56.1688 9.42042C54.7187 9.42042 53.8457 10.1375 53.5499 11.5719H58.4547C58.4695 10.9426 58.2623 10.4303 57.8333 10.0351C57.419 9.62536 56.8641 9.42042 56.1688 9.42042ZM62.7299 10.3205C62.7299 9.39846 63.0701 8.66663 63.7508 8.12514C64.4314 7.58365 65.3117 7.31284 66.3919 7.31284C68.0194 7.31284 69.2844 7.72997 70.1871 8.56421L69.2327 10.3644C68.4189 9.73513 67.5163 9.42042 66.525 9.42042C66.1699 9.42042 65.874 9.50823 65.6373 9.68386C65.4005 9.8449 65.2822 10.0425 65.2822 10.2766C65.2822 10.7596 65.9109 11.1621 67.1687 11.4841C67.6273 11.5865 68.0342 11.7036 68.3893 11.8353C68.7444 11.9525 69.1069 12.1281 69.4768 12.3622C69.8615 12.5818 70.1574 12.8745 70.3646 13.2404C70.5717 13.6063 70.6753 14.0307 70.6753 14.5137C70.6753 15.4797 70.3054 16.2481 69.5656 16.8189C68.8405 17.3897 67.864 17.6751 66.636 17.6751C65.763 17.6751 64.9122 17.4921 64.0837 17.1262C63.2403 16.7457 62.7002 16.3652 62.4635 15.9846L63.7064 14.3381C63.9875 14.6748 64.4536 14.9602 65.1046 15.1943C65.7705 15.4431 66.3401 15.5675 66.8136 15.5675C67.3906 15.626 67.7974 15.4431 68.0342 15.0187C68.2709 14.5796 68.1156 14.221 67.5682 13.9429C67.3462 13.8258 66.9984 13.7014 66.525 13.5697C66.0663 13.438 65.6373 13.3063 65.2378 13.1745C64.8531 13.0282 64.4536 12.8452 64.0393 12.6257C63.6398 12.4061 63.3217 12.1061 63.085 11.7256C62.8482 11.3304 62.7299 10.862 62.7299 10.3205ZM72.7024 13.6795V4.8101H75.2547V7.55434H78.4729V9.92536H75.2547V13.5258C75.2547 14.7113 75.6542 15.3041 76.4532 15.3041C76.9562 15.3041 77.4667 15.1138 77.9846 14.7333L78.7614 16.6872C77.9475 17.3312 76.9637 17.6531 75.8096 17.6531C74.7294 17.6531 73.9379 17.3312 73.4348 16.6872C72.9466 16.0285 72.7024 15.026 72.7024 13.6795ZM87.1498 17.4336H86.9501V2.06586H87.1942C87.8304 2.06586 88.4223 2.05851 88.9697 2.04391C90.0647 2.0146 90.7156 2 90.9228 2C92.4172 2 93.734 2.20494 94.8733 2.61471C96.0274 3.00988 96.9448 3.56608 97.6254 4.28321C98.306 4.98573 98.8091 5.78343 99.1346 6.67618C99.4749 7.55434 99.6451 8.50571 99.6451 9.53019C99.6451 11.8427 98.8683 13.7453 97.3147 15.2382C95.7759 16.7311 93.5861 17.4775 90.7453 17.4775C90.1091 17.4775 89.5246 17.4701 88.9919 17.4555C88.4593 17.4409 87.8453 17.4336 87.1498 17.4336ZM90.8784 3.1416C90.553 3.1416 90.072 3.1562 89.4358 3.18551C88.8144 3.20011 88.3927 3.20747 88.1708 3.20747V16.292C88.659 16.292 89.1177 16.2993 89.5468 16.3139C89.9759 16.3139 90.2866 16.3213 90.4789 16.3359C90.6712 16.3359 90.7749 16.3359 90.7897 16.3359C93.2014 16.3359 95.0657 15.7066 96.3825 14.4479C97.6994 13.1745 98.3578 11.5353 98.3578 9.53019C98.3578 7.64215 97.7289 6.10538 96.4713 4.91987C95.1988 3.73436 93.3345 3.1416 90.8784 3.1416ZM110.396 15.348L110.774 16.2261C109.871 17.1628 108.643 17.6312 107.089 17.6312C105.491 17.6312 104.212 17.1628 103.25 16.2261C102.273 15.2895 101.785 14.0453 101.785 12.494C101.785 11.0011 102.229 9.77168 103.117 8.80571C104.019 7.83974 105.262 7.35675 106.845 7.35675C108.132 7.35675 109.213 7.76652 110.086 8.58617C110.944 9.39111 111.373 10.4669 111.373 11.8134C111.373 12.1647 111.351 12.472 111.306 12.7355H103.072C103.117 13.921 103.509 14.8576 104.249 15.5456C104.988 16.2188 105.957 16.5554 107.156 16.5554C108.547 16.5554 109.627 16.1529 110.396 15.348ZM106.734 8.43249C105.669 8.43249 104.803 8.73985 104.138 9.35456C103.487 9.96926 103.109 10.7816 103.006 11.7914H110.197C110.182 10.7523 109.864 9.93271 109.242 9.3326C108.621 8.73249 107.785 8.43249 106.734 8.43249ZM119.306 14.843C119.306 14.3894 119.112 14.0234 118.728 13.7453C118.358 13.4673 117.9 13.2478 117.352 13.0867C116.82 12.9257 116.279 12.7501 115.732 12.5598C115.184 12.3549 114.718 12.0403 114.334 11.6158C113.963 11.1767 113.779 10.6279 113.779 9.96927C113.779 9.17893 114.074 8.54962 114.667 8.08123C115.258 7.59824 116.035 7.35675 116.997 7.35675C118.373 7.35675 119.416 7.72261 120.127 8.45445L119.638 9.31065C118.957 8.68134 118.085 8.36663 117.02 8.36663C116.427 8.36663 115.939 8.52031 115.555 8.82766C115.184 9.12042 115 9.49363 115 9.94731C115 10.4157 115.184 10.8035 115.555 11.1109C115.939 11.4036 116.398 11.6378 116.931 11.8134C117.478 11.9744 118.025 12.1501 118.573 12.3403C119.12 12.5305 119.579 12.8306 119.949 13.2404C120.333 13.6502 120.526 14.1698 120.526 14.7991C120.526 15.6919 120.186 16.3872 119.505 16.8847C118.839 17.3823 117.981 17.6312 116.931 17.6312C116.279 17.6312 115.599 17.4849 114.889 17.1921C114.223 16.914 113.764 16.5847 113.513 16.2042L114.157 15.4577C114.437 15.7944 114.859 16.0724 115.422 16.292C115.999 16.5115 116.546 16.6213 117.064 16.6213C117.714 16.6213 118.247 16.4676 118.662 16.1603C119.09 15.8383 119.306 15.3992 119.306 14.843ZM125.119 17.4336H123.965V7.55434H125.119V17.4336ZM123.765 3.71241C123.765 3.49287 123.848 3.31724 124.01 3.18551C124.173 3.05379 124.365 2.98793 124.587 2.98793C124.78 2.98793 124.949 3.06114 125.097 3.20747C125.26 3.33919 125.341 3.50747 125.341 3.71241C125.341 3.96125 125.268 4.15884 125.119 4.30516C124.986 4.45148 124.809 4.5247 124.587 4.5247C124.35 4.5247 124.15 4.45148 123.987 4.30516C123.84 4.15884 123.765 3.96125 123.765 3.71241ZM127.755 18.8825C127.755 18.1361 128.021 17.5068 128.554 16.9945C129.086 16.4822 129.841 16.1237 130.818 15.9188C130.596 15.6553 130.485 15.3406 130.485 14.9748C130.485 14.6089 130.61 14.2796 130.862 13.9868C130.211 13.7088 129.7 13.2917 129.331 12.7355C128.961 12.1793 128.776 11.5499 128.776 10.8474C128.776 9.83754 129.139 9.0033 129.863 8.34468C130.588 7.68606 131.542 7.35675 132.726 7.35675C133.673 7.35675 134.51 7.6056 135.234 8.10318H135.256L138.097 7.35675V8.43249L136.078 8.93743C136.477 9.53754 136.677 10.1742 136.677 10.8474C136.677 11.828 136.307 12.6622 135.567 13.3502C134.827 14.0088 133.88 14.3381 132.726 14.3381C132.312 14.3381 131.979 14.3088 131.728 14.2503C131.594 14.4405 131.528 14.682 131.528 14.9748C131.528 15.3114 131.624 15.5749 131.816 15.7651C132.379 15.7358 132.69 15.7212 132.748 15.7212C134.272 15.7212 135.486 15.9992 136.388 16.5554C137.29 17.1116 137.742 17.8873 137.742 18.8825C137.742 19.8631 137.29 20.6243 136.388 21.1658C135.486 21.722 134.272 22 132.748 22C131.209 22 129.989 21.7292 129.086 21.1877C128.199 20.6462 127.755 19.8778 127.755 18.8825ZM128.931 18.8825C128.931 19.5266 129.272 20.0315 129.952 20.3974C130.648 20.7779 131.58 20.9682 132.748 20.9682C133.903 20.9682 134.827 20.7779 135.523 20.3974C136.218 20.0168 136.566 19.5119 136.566 18.8825C136.566 18.2385 136.218 17.7263 135.523 17.3458C134.842 16.9506 133.917 16.753 132.748 16.753C131.594 16.753 130.67 16.9433 129.974 17.3238C129.278 17.7044 128.931 18.2239 128.931 18.8825ZM130.729 9.09111C130.211 9.5595 129.952 10.1449 129.952 10.8474C129.952 11.5499 130.211 12.1353 130.729 12.6037C131.247 13.0721 131.913 13.3063 132.726 13.3063C133.54 13.3063 134.205 13.0721 134.724 12.6037C135.242 12.1353 135.5 11.5499 135.5 10.8474C135.5 10.1449 135.234 9.5595 134.702 9.09111C134.183 8.62272 133.525 8.38858 132.726 8.38858C131.942 8.38858 131.276 8.62272 130.729 9.09111ZM141.232 17.4336H140.078V7.55434H141.232V8.93743C141.646 8.48375 142.179 8.11054 142.83 7.81779C143.496 7.52503 144.162 7.37871 144.828 7.37871C146.218 7.37871 147.261 7.73732 147.957 8.45445C148.652 9.17157 149 10.284 149 11.7914V17.4336H147.846V12.011C147.846 9.63996 146.751 8.45445 144.561 8.45445C143.924 8.45445 143.303 8.60077 142.697 8.89353C142.09 9.17157 141.602 9.53019 141.232 9.96927V17.4336Z" fill="white"/>
</svg>