<svg xmlns="http://www.w3.org/2000/svg" width="167" height="42" fill="none">
  <path fill="#fff" fill-rule="evenodd" d="M71.8955.0218c-.115.0105-.4077.047-.6534.0784-.2457.0314-.7057.1046-1.0194.1621-.3136.0575-.7423.1516-.9409.2091a26.0652 26.0652 0 0 1-.3151.0879h-.0004l-.0001.0001-.0002.0001a17.4515 17.4515 0 0 0-.3377.0949c-.1568.0418-.5593.183-.8886.3136-.3294.1307-.7057.2875-.8364.3555l-.1424.074a224.478 224.478 0 0 0-.5111.2658c-.23.115-.4861.2613-.575.3136-.0889.0575-.1934.1202-.2352.1412-.0418.0209-.23.1411-.4182.2718-.1882.1254-.481.3398-.6535.4705-.1725.1306-.4077.3188-.5175.4234-.115.0993-.3607.324-.5489.4966-.1934.1725-.507.5018-.7057.7318-.1986.23-.3973.4548-.4391.4966-.0418.0419-.1673.2092-.277.366-.0352.0502-.0763.1085-.1188.1688l-.0007.001c-.09.1277-.1862.2643-.2465.353-.0941.1306-.2143.3188-.2666.4181l-.0451.0784-.0002.0004h-.0001l-.0004.0008c-.0522.0907-.1131.1966-.1528.2602-.0575.0836-.183.3189-.2771.5228-.0993.2038-.2457.507-.3241.6795s-.2352.5855-.3398.9148c-.1097.3294-.2352.779-.2822.9932l-.087.3951-.0856.3891c-.0888.3659-.094 1.4062-.1045 15.3322l-.0157 14.9349c.183.0418 2.1171.047 4.4172.0418l4.182-.0157c.0471-24.9717.068-28.9916.1098-29.0648.0314-.0575.0732-.2091.0941-.3398.0209-.1306.0836-.3397.1411-.4704.036-.0749.0788-.1686.1176-.2537l.0003-.0007.0009-.0019.0001-.0002c.0284-.0624.0547-.1199.0746-.1617.0522-.0993.2195-.3607.3816-.575.162-.2144.4077-.4967.5488-.6273.1412-.1307.4287-.3503.6378-.4862.2039-.136.5802-.3293.8364-.4339.2509-.1045.6325-.23.8468-.2718.2457-.0575.6326-.0889 1.0455-.0836.3973 0 .8051.0313 1.0455.0836.2144.047.5803.1516.8103.2352.23.0837.6064.277.8364.4235.23.1515.5855.4338.7841.6273.1987.1934.4757.5175.6064.7161.1307.2039.3136.5437.4025.758.0837.2143.1934.5541.2405.758.0732.3293.0836 1.8662.0784 14.7153 0 11.6782.0157 14.3599.068 14.4122.0522.0523 1.0298.0627 4.3283.0523l4.2604-.0105c.0523-24.9821.0732-29.0177.115-29.1693.0366-.115.0836-.2928.1098-.3921.0261-.0993.1098-.3241.1934-.4966.0784-.1725.2457-.4652.3659-.6534.1255-.1882.3973-.507.6116-.7057.2091-.2039.5594-.4757.7737-.6116.2143-.136.6012-.3242.8625-.4235.2614-.0993.6953-.2248.9671-.2718.3503-.0627.6587-.0836 1.0455-.0627.3032.0157.7267.0575.941.0993.2143.0418.4757.1098.575.1568.0993.047.298.1255.4443.183.1412.0523.345.1568.4548.2404.1098.0785.2091.1412.2248.1412.0157 0 .0889.047.1725.1098.0784.0575.2562.2038.3973.324.1411.1203.3973.4078.5698.6378.1777.23.4025.5959.5018.8103.0994.2143.1987.4757.2196.575.0209.0993.0627.2771.0941.3921.0366.1411.0575 4.7883.0575 14.6108 0 11.5527.0104 14.4173.0627 14.4696.0523.0523.9566.0627 4.3024.068 3.398 0 4.245-.0157 4.297-.068.052-.0523.068-3.3142.078-14.6265.016-12.2689.026-14.5899.089-14.7415.029-.0679.079-.1994.132-.336v-.0004l.001-.0028c.024-.062.048-.125.071-.1835.073-.1882.24-.5018.371-.7057.131-.2039.403-.528.607-.7319.203-.2038.543-.4809.757-.622.215-.1412.607-.345.863-.4496.256-.1045.648-.2248.863-.2614.214-.0418.674-.0732 1.019-.0732.382 0 .789.0314 1.045.0837.23.047.607.162.837.2561.23.0889.455.1987.496.2353.042.0366.095.0732.121.0732.021 0 .151.0784.287.1725.141.0888.403.298.586.4548.177.1568.444.4652.59.6795.147.2144.304.4653.351.5489.041.0837.13.2875.193.4443.063.1569.146.4496.193.6535.079.3293.084 1.7564.084 14.7572 0 12.7393.011 14.3912.078 14.4121.042.0157 1.966.0262 4.277.0262 2.305 0 4.223-.021 4.255-.0419.052-.0261.062-3.0737.052-14.9087-.01-10.8523-.031-14.9297-.073-15.0813-.032-.115-.084-.3503-.115-.5228-.032-.1725-.079-.4286-.11-.575-.031-.1411-.152-.5541-.267-.9148-.12-.3607-.271-.7841-.345-.941l-.08-.1723-.212-.455c-.089-.1881-.293-.5645-.455-.8363-.162-.2719-.471-.7319-.685-1.0194-.219-.2875-.497-.6377-.622-.7841-.125-.1411-.455-.481-.727-.7528-.277-.2666-.747-.6795-1.045-.9148-.298-.23-.596-.46-.664-.5018l-.1-.062c-.131-.0817-.358-.223-.585-.3614-.308-.1882-.763-.4444-1.009-.5646-.245-.1255-.622-.2928-.836-.3816a40.102 40.102 0 0 0-.68-.2562c-.156-.0575-.522-.1777-.81-.2613-.287-.0837-.69-.1882-.889-.23-.198-.0366-.517-.0941-.705-.1255a123.639 123.639 0 0 1-.34-.0575c-.123-.0209-.246-.0418-.34-.0575-.188-.0261-.753-.068-1.254-.0836-.528-.0157-1.192 0-1.569.0313-.36.0314-.852.0941-1.097.1307l-.032.0053c-.243.0413-.561.0956-.726.1306-.173.0314-.57.1307-.889.2196-.319.0888-.868.2718-1.229.4077-.36.136-.909.3816-1.228.5437-.319.1568-.669.345-.784.4077-.115.068-.445.277-.732.4653-.288.1934-.711.4913-.941.6639-.23.1777-.444.3032-.47.2875a11.5743 11.5743 0 0 1-.065-.0494l-.001-.0007c-.07-.0533-.184-.1404-.3-.2322-.1729-.1307-.5022-.3712-.7322-.528-.23-.1568-.6169-.4025-.8626-.5489-.2456-.1516-.7161-.3973-1.0454-.5593-.3294-.1568-.8626-.3816-1.1762-.4966-.3137-.1203-.8207-.2875-1.1239-.366-.3032-.0836-.6901-.183-.8626-.2143-.1652-.035-.4841-.0893-.7266-.1306h-.0001l-.0313-.0053c-.2456-.0366-.737-.0993-1.0977-.1307-.3764-.0313-1.0403-.047-1.5683-.0313-.5018.0156-1.0664.0575-1.2546.0836-.0941.0157-.217.0366-.3399.0575h-.0001l-.0014.0003a114.023 114.023 0 0 1-.3381.0572c-.1882.0314-.4914.0836-.6796.1255-.1882.0365-.5907.1411-.9044.23-.3084.0888-.805.2561-1.1082.3711-.3032.115-.8155.3398-1.1396.5018-.3189.1569-.6325.3137-.69.3503-.0394.0275-.1291.0818-.2224.1381l-.0913.0553c-.115.068-.2561.1568-.3136.1934a2.5064 2.5064 0 0 1-.183.1046c-.0418.0209-.392.2666-.7684.5489l-.6953.5123a80.5424 80.5424 0 0 0-.9095-.6744c-.2928-.209-.7737-.5332-1.0769-.7162-.3032-.1777-.8312-.4547-1.1762-.6116-.345-.162-.8521-.3711-1.1239-.4757A17.3278 17.3278 0 0 0 76.94.5655c-.2143-.0575-.4757-.1307-.575-.162-.0993-.0262-.3136-.0732-.4705-.1046a56.623 56.623 0 0 1-.2928-.0504 99.9887 99.9887 0 0 0-.622-.1064c-.4339-.068-.9723-.1046-1.7512-.1203-.6168-.0104-1.218-.0104-1.333 0Zm73.0275.021c-.287.0209-.805.0784-1.15.1254-.345.047-.815.1202-1.045.1673-.142.0258-.326.0637-.491.0974-.101.021-.195.0402-.267.0542-.188.0366-.481.1098-.654.1568-.124.0338-.275.073-.387.1022l-.109.0285c-.099.0261-.429.1255-.732.23-.303.0993-.716.2405-.915.3189-.198.0784-.591.2352-.862.3502-.272.115-.675.298-.889.4025l-.069.0353v.0001c-.207.1061-.47.2404-.611.3201-.156.0889-.381.2143-.496.277-.115.0628-.272.1517-.35.1987-.074.047-.251.1568-.393.2405-.135.0836-.439.2822-.669.439-.23.1621-.606.434-.836.6065-.23.1725-.674.5384-.993.8102-.319.2719-.81.7371-1.098 1.0246-.288.2875-.753.7789-1.025 1.0978-.271.3188-.637.7632-.81.9932-.172.23-.444.6064-.601.8364-.162.23-.392.5907-.523.7998-.125.2143-.266.4496-.313.5227-.017.0317-.049.0872-.087.1556l-.001.0006a26.257 26.257 0 0 0-.195.3509c-.109.2039-.266.4966-.345.6534-.078.1569-.24.5123-.36.7842-.107.2399-.257.6102-.363.8699l-.001.0007v.0021l-.039.0944c-.099.2561-.251.6848-.334.9409-.084.2561-.23.7423-.319 1.0716-.089.3294-.194.7528-.236.941-.036.1882-.104.5384-.146.7841-.042.2457-.099.6325-.131.8625-.026.23-.078.6169-.115.8626-.036.2561-.062 1.0768-.062 1.9341 0 .873.026 1.6624.062 1.9081.037.23.089.6273.115.8886.032.2614.089.6587.131.8887.037.23.105.5698.152.758.041.1882.099.4443.13.575.032.1307.084.3293.115.4443.032.1151.189.6064.351 1.0978.156.4914.313.9462.35 1.0194.025.059.074.1621.117.252v.0006l.029.061c.047.0993.131.3032.188.4444.053.1463.267.5907.476.9932.204.4025.481.9096.617 1.1239.131.2143.345.5541.476.758.13.2038.407.6011.622.8886.141.195.298.402.406.546l.045.0593c.031.0406.055.0732.071.0952.079.0994.168.2039.199.2353.031.0313.235.2666.45.5279.219.2614.674.7423 1.014 1.0769.345.3346.763.7214.935.8625.173.1412.387.3241.471.4025.089.0837.261.2196.392.3137.131.0889.46.3293.732.528.277.2038.549.3973.601.4339.025.0158.094.0582.189.1164.124.0761.293.1794.464.2861.304.1829.785.4548 1.072.6064.288.1463.544.2875.575.3084.031.0209.392.1829.81.3607.419.1777 1.114.4443 1.542.5907.434.1463 1.161.3607 1.621.4757.46.115 1.035.2457 1.281.2823.245.0418.658.0993.915.1254.256.0314.601.0784.758.1046.156.0261.841.0627 1.516.0836.731.0157 1.515.0105 1.934-.0261.387-.0314.977-.0941 1.307-.1359.329-.0419.778-.1098.993-.1516.214-.0366.533-.0994.705-.1359.173-.0366.481-.1046.68-.1569.199-.0522.565-.1568.81-.23.246-.0679.701-.2195 1.02-.3345l.12-.0432v-.0002c.298-.1074.646-.2328.821-.3017.198-.0784.752-.3345 1.228-.5697.476-.2353 1.129-.5855 1.453-.7789.319-.1935.852-.5385 1.176-.758.319-.2196.691-.4862.821-.5855.131-.1046.246-.1987.262-.2143.015-.0157.203-.1673.418-.3346.214-.1725.826-.7475 1.359-1.2807.533-.5332 1.213-1.2808 1.511-1.6519.298-.3712.653-.8416.784-1.035.13-.1972.347-.5231.483-.7273l.003-.0046c.141-.2091.277-.4234.303-.4809l.023-.0416c.033-.0629.082-.153.124-.2198.052-.0836.198-.345.324-.575.125-.23.282-.5228.345-.6535l.018-.0375c.068-.1419.189-.3941.28-.5898.099-.2143.277-.6272.392-.9148.109-.2875.298-.8154.413-1.1761.115-.3607.235-.7476.266-.8626.032-.115.094-.3398.141-.4966.042-.1568.105-.4025.131-.5489.018-.0808.045-.2164.073-.3608v-.0015l.029-.1474.02-.1001.008-.0386.006-.0311c.042-.2301.115-.6639.157-.9671.042-.3032.099-.8678.13-1.2546.032-.4078.048-1.3173.032-2.1433-.016-.7893-.052-1.5787-.084-1.7512-.031-.1725-.078-.5018-.11-.7318-.026-.23-.083-.6064-.125-.8364-.042-.23-.115-.5646-.157-.7423-.023-.0918-.052-.2086-.081-.3227v-.002c-.028-.1126-.055-.2224-.076-.3026a34.7105 34.7105 0 0 0-.151-.5907c-.047-.1569-.188-.596-.319-.9671-.126-.3712-.366-.988-.528-1.3592-.162-.3711-.46-.9984-.664-1.3853-.199-.3868-.481-.8834-.622-1.0977-.141-.2144-.277-.4391-.309-.4966-.017-.0385-.049-.0933-.077-.1426-.014-.0244-.027-.0475-.038-.0665a31.8401 31.8401 0 0 0-.266-.365l-.002-.0025v-.0007c-.101-.137-.22-.3-.343-.4682-.303-.4025-.758-.9776-1.019-1.2755-.262-.3032-.727-.7946-1.03-1.0978-.303-.3032-.795-.7684-1.098-1.0298-.298-.2614-.836-.6953-1.197-.9619-.361-.2718-.79-.575-.957-.6795-.079-.047-.16-.0962-.229-.1378V3.198l-.003-.0014v-.0003a5.7513 5.7513 0 0 0-.16-.0956c-.026-.0176-.081-.0517-.144-.0912l-.154-.097a11.6078 11.6078 0 0 0-.601-.3502c-.214-.1202-.638-.3398-.941-.4862-.303-.1463-.596-.2927-.653-.324a7.7824 7.7824 0 0 0-.445-.1778c-.188-.0732-.36-.1464-.392-.1673-.031-.0209-.455-.1725-.941-.3293-.486-.162-.982-.3189-1.097-.3503-.115-.0313-.455-.115-.758-.1881-.304-.0785-.748-.1726-.994-.2091-.245-.0419-.658-.0994-.915-.1307-.256-.0314-.622-.0784-.81-.1098-.188-.0314-.951-.0627-1.699-.0732-.747-.0104-1.594 0-1.882.0261ZM.002 20.6128C-.0033 9.4836.002.3512.0176.3146.0386.2623 2.5634.2518 25.005.278v8.6253l-16.2575.021-.0627.1358c-.0523.0994-.068.8783-.068 3.3456 0 2.0387.021 3.2515.0523 3.3195.0523.1045.1046.1045 14.5324.1045l.0523.1307c.0314.0837.0523 1.5996.0523 4.1663 0 2.2217-.0157 4.1193-.0784 4.3806h-7.2506c-7.2034 0-7.2557 0-7.308.1046-.0366.0679-.0523 2.8908-.0523 16.2052l-.115.0261c-.068.0157-2.002.0209-8.4842 0L.002 20.6129ZM28.8524.2884c-.0679.021-.0784 1.8976-.0679 14.5377.0104 8.986.0313 14.6944.0627 14.9871.0314.2614.0836.6482.1255.8626.0295.1512.0694.3493.1014.5079l.0345.1716c.0313.1569.162.596.2875.9671.1254.3712.3555.9514.5123 1.2808.1568.3293.3816.7579.5018.9514l.0619.1066.0001.0001c.0865.1488.1523.2621.1523.2749 0 .0156.1778.2666.3973.5593.2144.298.4705.6325.5594.7475.0888.115.4861.528.873.9148.392.3869.9461.8835 1.2284 1.103.2875.2144.6691.4862.8521.6012.1104.0662.2302.1419.3252.2019l.0005.0003c.0622.0394.1137.0719.1448.0905.0784.0471.46.251.8468.4496.3869.2039.8103.4025.941.4443.1307.0471.4025.1464.6011.2196.2039.0784.4757.1777.6169.2143.1359.0418.3711.1098.5227.1516.1464.0471.4496.115.6639.1568.2143.0419.5123.0994.6535.1255.1463.0261.4757.0784.7318.115.2927.047.9305.0732 1.6728.0732.7214 0 1.401-.0262 1.6989-.068l.1103-.0169c.2487-.0382.5251-.0806.6477-.1033a47.591 47.591 0 0 0 .5755-.1102l.0002-.0001.0777-.0152c.2144-.0418.6273-.1463.9149-.23.2875-.0836.7109-.2248.9409-.3084.23-.0836.5384-.2039.6796-.2614.1463-.0575.5436-.2509.8886-.4286.3451-.1778.8417-.4548 1.0978-.6169.2614-.162.5646-.3711.6796-.4548.115-.0836.3868-.2979.6011-.4704.2144-.1673.6848-.6064 1.0455-.9671.3607-.3607.8678-.941 1.124-1.286.2613-.3398.5018-.6691.5384-.7266l.0304-.0553a4.26 4.26 0 0 0 .0689-.1277c.0209-.0418.1202-.2195.2248-.392.1098-.1725.2718-.4757.3607-.6796.0941-.2039.2248-.4861.2927-.6273.0628-.1463.2196-.5698.3398-.9409.1202-.3712.2562-.8417.298-1.0455.0418-.2039.0993-.5175.1254-.7057.0262-.1882.0732-.528.1046-.758.0366-.2771.047-5.2693.0366-14.9245L55.7426.278c-6.4821-.021-8.4163-.0157-8.479 0l-.1202.0261c0 28.0245-.0052 28.4793-.0993 28.9864-.0575.2875-.1516.6534-.2144.8102a8.6661 8.6661 0 0 1-.2457.5489c-.0731.1412-.2352.3921-.3607.5489-.1202.1568-.3554.4182-.5279.5803-.1673.162-.4078.3659-.5385.4443-.0836.0536-.1759.1114-.2465.1557-.0397.0249-.0726.0455-.0932.0586a9.0384 9.0384 0 0 1-.3398.1725c-.1307.0628-.413.1673-.6273.2353-.2144.0679-.5071.1463-.6535.1777-.1411.0366-.5645.0627-.9409.0627-.3712 0-.7371-.0209-.8103-.047-.0732-.0261-.2457-.068-.392-.0889-.1412-.0209-.46-.1202-.7057-.2195-.2457-.1046-.6064-.2928-.8103-.4235-.1986-.1254-.528-.3868-.7214-.5802-.1986-.1882-.4548-.4862-.575-.6587-.1202-.1725-.298-.4757-.3921-.6795-.0993-.2039-.2091-.5071-.2404-.6796-.0366-.1725-.0889-.3503-.115-.3921-.0262-.047-.0575-5.8652-.0732-14.5585L37.3941.278C30.8336.2623 28.889.2728 28.8524.2884ZM145.524 8.6883c-.016.0157-.298.0523-.628.0836-.329.0262-.684.0732-.784.0994-.066.021-.206.054-.356.089-.073.0173-.148.035-.219.0521-.214.047-.559.1411-.758.2039-.055.0187-.117.04-.182.062-.17.0576-.358.1211-.471.1628-.157.0627-.512.2143-.784.345-.272.1307-.638.3188-.811.4182-.172.1045-.35.2038-.392.2247-.041.021-.407.2823-.81.5803-.402.3032-.962.7737-1.244 1.0507-.287.2771-.768.8312-1.072 1.2337-.303.4025-.684.9566-.846 1.2285-.157.2718-.398.7318-.534 1.0193-.13.2875-.313.7371-.402.9932-.094.2614-.225.6953-.288.9671a46.355 46.355 0 0 0-.183.758c-.036.1464-.083.5071-.115.8103-.031.3032-.068.9043-.078 1.333-.021.6116-.005.9514.078 1.5421.058.4182.131.8991.162 1.0716.032.1725.157.6325.272 1.0194.12.3868.262.8102.319.9409.042.095.12.2672.195.4345.028.063.056.1252.082.1824.099.2038.178.3868.178.4025 0 .0157.12.2195.266.46.069.1138.14.2288.198.3238.062.1013.11.1797.127.2094.036.0575.271.3868.528.7318.256.3451.7.8678.993 1.1658.287.2979.81.758 1.155 1.0246.345.2718.899.6482 1.229.8468.334.1987.684.3973.784.4496.099.047.339.1568.538.2457.194.0888.591.2404.884.3397.297.0994.669.2196.825.2666.157.0471.403.1098.549.1307.089.0164.256.0449.436.0756.108.0183.22.0375.322.0551.283.0523.92.0993 1.464.115.549.0157 1.15 0 1.385-.0313.115-.0131.267-.0327.419-.0523.151-.0196.303-.0392.418-.0523.23-.0314.57-.0889.758-.1254.188-.0419.575-.1464.862-.2353.288-.0836.711-.23.941-.3241.23-.0889.549-.23.706-.3084.157-.0784.429-.2248.601-.3189.173-.0941.434-.2457.575-.3293.141-.0837.533-.3607.863-.6116.329-.2562.899-.7632 1.259-1.1344.366-.3659.879-.9566 1.14-1.3069.261-.3554.476-.6534.476-.6691 0-.0157.099-.1986.225-.4025.125-.2091.308-.5593.412-.7737.105-.2143.262-.5698.345-.7841.084-.2143.225-.6273.314-.9148s.178-.6168.194-.7318c.02-.115.057-.2666.083-.3398.021-.0732.068-.3659.1-.6535.036-.2875.078-.7318.099-.9932.026-.2614.026-.8573 0-1.333-.021-.4757-.073-1.0612-.115-1.3069-.042-.2456-.099-.5593-.131-.7057-.031-.1411-.141-.5541-.251-.9148-.104-.3607-.334-.9723-.507-1.3591-.172-.3869-.455-.941-.627-1.2285-.173-.2875-.528-.805-.789-1.15-.257-.345-.717-.8782-1.02-1.1814-.303-.3032-.847-.7737-1.207-1.0455-.361-.2719-.701-.5228-.758-.5594-.019-.0103-.042-.0236-.067-.0376-.049-.0284-.104-.0599-.142-.0774a4.6913 4.6913 0 0 1-.262-.1568c-.089-.0575-.392-.2196-.679-.3607a53.7425 53.7425 0 0 0-.811-.3868c-.157-.0732-.617-.23-1.019-.3503-.403-.1202-.852-.2404-.993-.2666-.088-.0156-.245-.0425-.415-.0717-.114-.0195-.234-.04-.343-.059-.303-.0522-.915-.0993-1.568-.1097-.591-.0105-1.083-.0105-1.098.0052Z" clip-rule="evenodd"/>
</svg>